<svg xmlns="http://www.w3.org/2000/svg" xmlns:xlink="http://www.w3.org/1999/xlink" viewBox="0 0 750 500"><defs><linearGradient id="freepik--Degradado_sin_nombre_66--inject-37" x1="241.83" y1="401" x2="241.83" y2="354.55" gradientTransform="matrix(-1, 0, 0, 1, 323.05, 0)" gradientUnits="userSpaceOnUse"><stop offset="0.37" stop-color="#f8d8c3"></stop><stop offset="1" stop-color="#b77cbc"></stop></linearGradient></defs><g id="freepik--background-simple--inject-37"><path d="M589.94,13S480.47,39.73,373.36,44.45s-83.48-10.24-170.11-7.88S44.16,70.44,41.8,90.92s45.68-4.73,135.46-.79,175.37,19.86,133,26.08S102.66,145.39,67,175.19.84,258.67,26.83,334.28s108.69,107.11,193,105.53,199.89.28,296.12-22.84S706.51,317.74,712,295.69s-73.25-10.24-107.11-25.21,73.24-13.39,96.87-49.61,26.78-115,10.24-131.53-51.19-20.47-107.9-23.63,64.58,19.69,76.4-22S638,.35,589.94,13Z" style="fill:#5061FC"></path><path d="M589.94,13S480.47,39.73,373.36,44.45s-83.48-10.24-170.11-7.88S44.16,70.44,41.8,90.92s45.68-4.73,135.46-.79,175.37,19.86,133,26.08S102.66,145.39,67,175.19.84,258.67,26.83,334.28s108.69,107.11,193,105.53,199.89.28,296.12-22.84S706.51,317.74,712,295.69s-73.25-10.24-107.11-25.21,73.24-13.39,96.87-49.61,26.78-115,10.24-131.53-51.19-20.47-107.9-23.63,64.58,19.69,76.4-22S638,.35,589.94,13Z" style="fill:#fff;opacity:0.7000000000000001"></path></g><g id="freepik--Water--inject-37"><path d="M677.14,147.27c8.69-1.27,15.21-2.66,18.9-4.11" style="fill:none;stroke:#263238;stroke-miterlimit:10"></path><path d="M236.39,109.55c64.45,9.1,149.5,34.5,218.67,41,67.55,6.32,161,3.85,210.47-1.75" style="fill:none;stroke:#263238;stroke-miterlimit:10"></path><path d="M82.57,121.92s43.29-13.07,107.83-15.52a222.86,222.86,0,0,1,30.43,1.25" style="fill:none;stroke:#263238;stroke-miterlimit:10"></path><path d="M618.68,126.23c37.06-4.88,56.18-12.79,50.41-19-10.62-11.44-111.92-3.27-98,1.63" style="fill:none;stroke:#263238;stroke-miterlimit:10"></path><path d="M280.25,101.5s97.21,21.24,211.57,27.77c45.13,2.58,83.9,1.47,113.64-1.52" style="fill:none;stroke:#263238;stroke-miterlimit:10"></path><path d="M299.22,60.44,326,63.11" style="fill:none;stroke:#263238;stroke-miterlimit:10"></path><path d="M80.12,64.74s72.7-18.79,147-11.44l58.15,5.76" style="fill:none;stroke:#263238;stroke-miterlimit:10"></path><path d="M424.92,48c-23.54-.52-70.83-1.51-119.34-2.09" style="fill:none;stroke:#263238;stroke-miterlimit:10"></path><path d="M440.36,48.4l-6.51-.15" style="fill:none;stroke:#263238;stroke-miterlimit:10"></path></g><g id="freepik--plants-2--inject-37"><path d="M160.22,318.15s2.85-1.14,3.61,0-1.52,4.19-.38,4.57,1.71.38,3.43-1.53,2.47-2.28,3.61-2.28a7.73,7.73,0,0,1,4,1.71,6.23,6.23,0,0,1,.76,2.48c0,.57.38,2.09.38,2.85v3.62s-1.14,1.71,0,2.47.57,2.1,2.67,2.1a6.86,6.86,0,0,0,4.18-1.15,9.36,9.36,0,0,0,2.48-3.23c.76-1.52.95-3.24,1.52-3.62s1.52-.76,1.52.38a17.86,17.86,0,0,1-.95,3.81l-.76,3.23s-.19,1.53,1.9,1.15,2.48-1.15,3.62-1.91.95-1.71,2.28-1.71,2.1.38,4-.38,1.9-.57,3.24-2.28a30.74,30.74,0,0,0,2.28-3.43l2.18-1s.6-2.39,4.1-3.39c11.22-3.21-1.71,1.72,4.57-2.09s4.95-3,4.95-3,5.71-2.47,6.47-2.66a15.13,15.13,0,0,1,3.23-1.14,3.61,3.61,0,0,1,2.67.38c.76.38.38,3.23.38,3.23s-1.14,1-1.71,1.34-4.19,3-4.19,3l-.38,2.28s-.95,1.15,1.33,1.15,4.38-.38,4.95-.38.38,2.28.38,2.28l-3.62,3.24,1,1.14-1.14,3s-1.14,2.29-.76,2.86-.76,3.61-.76,3.61l-.76,1.72-3,2.09-1,.95-3.8,2.29s-2.29,2.09-1.72,2.47a3.4,3.4,0,0,1,.95,1.14s-.57,1.33-3,1.33-1.9.38-3.24,0a21.55,21.55,0,0,0-4.75-.57,24.67,24.67,0,0,0-4,.76s-.95,1.91-.38,2.1l.57.19h0c.76,1.14,2.28,2.85,3.23,2.85a17.29,17.29,0,0,1,3,.57s3.05,1.53,3.62,1.91a5.84,5.84,0,0,1,1.9,2.85,11,11,0,0,1-1.14,2.86l-1.72.38s-5.9-.38-6.47.57-.19,3.81.57,3.81a15.05,15.05,0,0,1,3.24,1.14l-.19,1.71s.76,2.09,1.33,2.28.76,1.91.76,1.91v1.33l-1.71,1h-2.09c-1.34,0-2.67-.38-4.38-.38s-3,.38-3.62,0a25.44,25.44,0,0,0-2.28-1.14c-.76-.38-1.9.38-2.28-.76a4.74,4.74,0,0,0-1.34-1.91,7.16,7.16,0,0,0-2.85-.38,15.71,15.71,0,0,0-4,.57,5.55,5.55,0,0,0,3.24,1.91c2.09.38,2.28,1.71,2.66,2.47s-.38,2.86-.38,2.86a4,4,0,0,1-2.09,1.14h-2.29c-1.14,0-2.66.57-3-.38s-2.67-2.1-2.67-2.1l-2.09.77,3.05,2.28-2.29,3a17.56,17.56,0,0,1-3.42,1.15,23.39,23.39,0,0,0-3.62.95A2.39,2.39,0,0,0,176.2,391a8.08,8.08,0,0,1,3.62,1.14c.57.39,1.71,1.91.38,2.48a14.5,14.5,0,0,1-4.76,1.14c-1.33,0-3.23.76-4.76,0a16.61,16.61,0,0,1-3.8-2.28,3.17,3.17,0,0,1-.95-2.48c0-1,1.52-1.33-.57-1.33s-5.71-.38-6.67-.38-2.09-.19-3.23-.19-.76.19-2.86.95-4.56,1.52-4.56,1.52,0,.57-1.72.57-2.47.77-3.23,0a7,7,0,0,0-2.67-1.71c-.76-.19-1.14-.38-3-.76s-1.14-.57-2.48-.76a60.57,60.57,0,0,0-12,1.33,46,46,0,0,1-9.51,1.14,36.37,36.37,0,0,1-7.05-.76c-1.14-.38-3.42-.57-5.13-1.71a24.82,24.82,0,0,0-4.38-2.28c-1.33-.58,0-.39-3-.77a13.22,13.22,0,0,0-6.09,1s1.72.38-2.47,0a43.91,43.91,0,0,0-6.09-.39c-2.29,0-.38.39-3.43,0a10.22,10.22,0,0,1-4.37-1.33l-.58-1.9a3.75,3.75,0,0,0,.38-1.33c0-.57.2-1.14-.76-1.72a26.77,26.77,0,0,0-2.85-1.33,4,4,0,0,1-1.14-2.09,2.28,2.28,0,0,0-.57-1.52s-4-2.86-4.76-2.86-2.29,0-2.67-.57a5.67,5.67,0,0,1-.76-2.85,3.68,3.68,0,0,0-1.9-3.05c-1.33-.95-3-2.47-3.24-3.24a5.29,5.29,0,0,1-.19-3,12.58,12.58,0,0,1,.76-2.48c.57-1.14,1.15-1.33,1.15-2.09s-.38-3-.38-4-.58-2.85,0-3.61.76-2.1,1.33-2.67a18.74,18.74,0,0,0,1.71-3.42,7.3,7.3,0,0,0,1-1.91,6.71,6.71,0,0,0,.57-2.66c0-1.14.38-1.33-.76-2.66s-2.09-1.15-2.85-2.67-1.53-1.14-1.53-2.47-.38-2.48-.38-3.43v-.95s.57-2.09.76-2.67-.19-.76.77-.95a23,23,0,0,1,3.61-.19h1.91c.76,0-2.67-8.37-3.05-10.08s-1.33-2.67-1.52-4-1.14-2.67-1.72-4.57-.76-3.42-1.33-4.76a9.34,9.34,0,0,1-.76-3.42c0-.76,0-2.1,1-2.29a32.87,32.87,0,0,1,3.81-.19s1,1.15,1.52.38.57-1.9.57-3.61A22.54,22.54,0,0,1,59,283.7c.19-.76,1-1.33,1.53-3.05a38.91,38.91,0,0,1,1.33-3.8c.38-.76-1-1.71,1.33-2.1s2.09.77,3.43-.76a18.59,18.59,0,0,0,2.47-4.56,15.22,15.22,0,0,1,1.52-.39,31.59,31.59,0,0,1,4-.38,3.14,3.14,0,0,1,2.28,1.53,16.43,16.43,0,0,1,.58,3.61l-1.34,2.86,1.53.76.19,2.09-.38,2.67,1.33.76a2.11,2.11,0,0,1,1.14,1.71,36.58,36.58,0,0,1,.19,3.81l-1.33,2.66s-.19,1.72-.19,2.48a25.75,25.75,0,0,0,.38,3.8,10.31,10.31,0,0,0,1.33,2.29,3.7,3.7,0,0,0,.38,2.66,4.87,4.87,0,0,0,2.09,1.52c.77.38,1,2.29,1,2.29l.19,3.61.76,1.91,1,.95.38,2.09v2.67s-.57,1.71,0,2.09a8.18,8.18,0,0,1,1.33,1.33l1,.19s-.38,1.34.77-.38.95-2.85,1.52-3,.57-1.14,1.71-1.14a1.78,1.78,0,0,1,1.52.57l.38,3h1.72s-.57,1.33.38,1.71a9.72,9.72,0,0,0,3.23.39h.76s.38-.39-.76-2.29S98.36,318,98.17,317a13.48,13.48,0,0,1,0-2.86s-1,1.14-.76-2.47-.19-3.24.76-4.19,1.33-1.14.57-2.85A25.1,25.1,0,0,1,97.6,301c-.38-1.14-.76-1.52-.38-2.47s.57-2.1,1-2.86a15.58,15.58,0,0,0,.76-2.09v-2.1a28.27,28.27,0,0,1,.19-3.61,2.93,2.93,0,0,1-1.33-2.48c0-1.71-.19-2.85.57-3.23a7,7,0,0,1,2.86-.76c1,0,2.66.57,2.66,1.71s-.95,2.28,0,2.85a19.86,19.86,0,0,1,2.09,1.53l4.38.38a13.19,13.19,0,0,1,1.9,2.28,24.4,24.4,0,0,1,.39,2.86l-1.72,3.61-1.14,1.52a2.67,2.67,0,0,0-.57,1.15A16.72,16.72,0,0,0,109,302l-.19,3s-1.52,1,.19,1h3.62c.57,0,1.14,1.14,1.14,1.14v3.24l-.38,1.52s-.19,1.33.57,1.52,2.66-1.14,2.66-1.14L118,310s-.38-.57.19-1.9,1-2.09,1-2.09-.77-.57,1.14-1.14l1.9-.58s1.52,0,1.71-.95a5.35,5.35,0,0,0,.19-1.52c0-.57-.19-1.52-.19-3a18.21,18.21,0,0,1,.58-4.19,5.65,5.65,0,0,1,1.33-1.52,3.69,3.69,0,0,1,1.52-1.15c.76-.19,1.14.57,2.09-.95s1.34-1.71,1.34-2.85-1.34-1.91-1.91-3.81-1.52-2.28-2.09-3.23-1.33-1.72-1.33-3.05v-2.66l3-1.91s.76-.19.19-1.14-2.28-3.24-2.47-4.19-1.9-1.14-.38-2.85,1.71-1.14,2.09-2.1a24.22,24.22,0,0,0,.76-2.66,23.92,23.92,0,0,0,.95-3v-1.15l3.05-5.9,2.09-.38a5.63,5.63,0,0,0,1.72.38c.76,0,1.14.38,1.71.19s1-1.52,1-1.52-.57-1.52.38-1.9a2.44,2.44,0,0,1,2.28-.19,1.8,1.8,0,0,1,1.15,1.9c0,.76-.76,2.28-.76,3.24s-.58,2.66,0,3.23-.39,2.1,1.14,1.9,1.52-1.9,2.47-2.85.57-1.9,1.52-2.47a7.12,7.12,0,0,1,2.29-.77s1.33,1.72,1.9,2.29,0,1.52.95,2.47,1.91,1.72,2.1,2.67a25.52,25.52,0,0,1,.19,3.61c0,.57-.38,2.67-.38,2.67l4,.76s-.19.38,1.53,1.33a5.09,5.09,0,0,1,2.28,3.05,14.38,14.38,0,0,1,.38,3.61l1.14,1.91a4.68,4.68,0,0,1,.76,1.9,16.21,16.21,0,0,1,0,3c-.19.58-.57,1.91-.57,1.91l-.38,2.66-1.9,3.24-2.29,1.9a1.31,1.31,0,0,0-.76.95c-.19.76-.57.38-.19,1.72a12,12,0,0,1,.38,2.85l-.76,1.71-.19,2.1a10.42,10.42,0,0,0,0,2.47,22.09,22.09,0,0,1,.19,3.24,3.64,3.64,0,0,0-.76,1.52,10.69,10.69,0,0,0,.38,1.9l-1.14,1.72-3.24,2.85c1,.76,4.38,0,4.57.57a11,11,0,0,0,.95,1.71Z" style="fill:#5061FC"></path><path d="M81.4,318.6a2.88,2.88,0,0,1-.36-1.21A5.79,5.79,0,0,1,81.4,318.6Z" style="fill:url(#freepik--Degradado_sin_nombre_66--inject-37)"></path><path d="M205.63,334c-2.07,1.17-4.18,2.26-6.31,3.32-1.06.52-2.14,1-3.24,1.51a24.65,24.65,0,0,1-3.42,1.08c-1.16.29-2.32.55-3.45.86a5.55,5.55,0,0,0-1.53.59c-.39.38-.81.85-1.23,1.26A21.93,21.93,0,0,1,183.7,345c-1,.69-2,1.33-2.92,2a32.23,32.23,0,0,0-2.72,2.23,26,26,0,0,1-2.86,2.21c-2,1.35-4,2.59-6.11,3.75s-4.42,1.95-6.27,3.22c-.47.33-.84.68-1.35,1.11s-1,.72-1.51,1.05c-1,.66-2.05,1.25-3.09,1.84l-3.11,1.74-1.52.88a11,11,0,0,0-1.38,1,38,38,0,0,0-4.73,5.12c-.76.91-1.52,1.83-2.3,2.74a13.19,13.19,0,0,1-2.79,2.52c-2.11,1.4-4.35,2.15-6,3.61a15.52,15.52,0,0,0-2.3,2.46l-1.56,1.92,1.19,0c.52-.35,1.05-.71,1.54-1.08.32-.25.63-.5.93-.76s.58-.55.9-.85A9,9,0,0,1,138,380a2.47,2.47,0,0,1,.91-.19,1.18,1.18,0,0,0,.39-.06,3,3,0,0,0,.82-.49c1.36-1.11,2.81-2,4.2-2.94.73-.47,1.33-.9,2-1.43l2-1.54.17-.13.21,0a11.31,11.31,0,0,0,2.22-.37,2.39,2.39,0,0,0,.89-.5,3,3,0,0,1,.69-.34,4.83,4.83,0,0,1,.65-.17l1.21-.24c.41-.07.83-.13,1.25-.17.84-.08,1.68-.06,2.45-.09.38,0,.73-.07,1.19-.1s.83,0,1.15-.07a7.53,7.53,0,0,0,2.07-.86c1.41-.76,2.79-1.59,4.13-2.45l.08-.05h.1a6,6,0,0,0,1.83-.68,7.73,7.73,0,0,0,.86-.54l.9-.6c1.22-.74,2.47-1.39,3.74-2l4.17-2.83c.69-.48,1.38-1,2-1.5a2.82,2.82,0,0,0,.43-.41c.12-.15.27-.34.41-.5l.86-.94c.59-.6,1.1-1.25,1.65-1.91a11.38,11.38,0,0,1,1.9-1.7,12,12,0,0,1,2.22-1.22l2.29-1.1L187.85,353a12.38,12.38,0,0,0-2.17,1.28,11,11,0,0,0-1.82,1.73c-.27.32-.51.66-.78,1s-.55.64-.82,1l-.83,1c-.14.16-.24.31-.38.5a4.11,4.11,0,0,1-.46.47c-.65.57-1.33,1.08-2,1.58l-4.11,3h0c-1.23.66-2.47,1.35-3.63,2.11-.29.19-.57.39-.84.59s-.6.43-.92.62a7.13,7.13,0,0,1-2,.79c-1.33.9-2.68,1.77-4.08,2.58a8.25,8.25,0,0,1-2.35,1,9.11,9.11,0,0,1-1.27.12c-.34,0-.78.12-1.21.15-.84.05-1.62.05-2.38.15-.39.05-.76.11-1.14.19l-1.16.26a2.26,2.26,0,0,0-.9.36l-.22.16a1.85,1.85,0,0,1-.3.21,2.89,2.89,0,0,1-.68.31,11.31,11.31,0,0,1-2.29.49l-1.82,1.47c-.63.52-1.38,1.09-2.06,1.56a49.38,49.38,0,0,0-4,3,5,5,0,0,1-1.33.82,3.3,3.3,0,0,1-.85.16.72.72,0,0,0-.32.07A8.22,8.22,0,0,0,137,383c-.28.28-.57.59-.91.91-.18.17-.37.32-.56.48l2.07,0,2.14,0h1.61a1.33,1.33,0,0,0,.3-.05,10.14,10.14,0,0,0,1.77-.83,8.56,8.56,0,0,1,1.05-.52,1.43,1.43,0,0,0,.62-.43,8.28,8.28,0,0,1,1.87-1.41l1.91-1c1.26-.68,2.58-1.33,3.91-1.9s2.76-1,4-1.55l3.76-2,.17-.09.18,0,2.27.41h.07l3,1,1.94.15,1,.07h1a19.76,19.76,0,0,0,4-.31c1.31-.27,2.6-.63,3.92-.94l.51-.1a2.21,2.21,0,0,1,.56,0,6.11,6.11,0,0,0,1-.07,3.4,3.4,0,0,0,1.73-.75,4.52,4.52,0,0,1,2-.61,14.19,14.19,0,0,0,2-.16c.64-.11,1.27-.36,1.94-.52s1.3-.33,1.94-.53a15.72,15.72,0,0,1,2-.54,14,14,0,0,1,2,0l4,.05h0l1.69,1.35-1.72-1.3-4,0a14.72,14.72,0,0,0-2,.1,13.54,13.54,0,0,0-1.91.59c-.65.21-1.3.39-1.94.58s-1.27.44-2,.58a13,13,0,0,1-2,.21,4.27,4.27,0,0,0-1.8.6,3.94,3.94,0,0,1-1.91.87,6.22,6.22,0,0,1-1,.1,2.89,2.89,0,0,0-.45,0l-.47.12c-1.3.33-2.59.73-3.91,1.05a30.24,30.24,0,0,1-8.16.3H166l-.06,0-3-.9-2.07-.31-3.61,2.06c-1.38.62-2.68,1.06-4,1.67s-2.52,1.24-3.76,1.95l-1.85,1.05a6.86,6.86,0,0,0-1.52,1.21,3,3,0,0,1-1.12.8,8.29,8.29,0,0,0-.86.46,10.71,10.71,0,0,1-2.09,1,2.8,2.8,0,0,1-.76.13h-.53l-1.08,0-2.14,0-4.51.06-.12.09-.06-.09h-1.07l1,1.33a28.88,28.88,0,0,0,3.62.57,14.9,14.9,0,0,0,4-.38c1.14-.38,2.67-.76,2.67-.76h1.14s-5.14,3-6.85,2.66a20.59,20.59,0,0,0-4.19-.38c-.57,0-1.33-.38-1.71.19a2.74,2.74,0,0,1-1.91,1.33,9.47,9.47,0,0,0-2.28.57s1.14.76,1.9,1.34,1.15.76,1.15,1.71a1.36,1.36,0,0,1-.17.56,12.75,12.75,0,0,0-6.48-2.39A144.16,144.16,0,0,0,109,393.92c-.12-.69-.39-2.27-.55-3.45-.43-.59-.88-1.18-1.34-1.74l-.37-.42a59.62,59.62,0,0,1-7.27-2,9.68,9.68,0,0,1-1.9-1c-.59-.37-1.11-.79-1.59-1.07a3.05,3.05,0,0,0-1.49-.45c-.57,0-1.23,0-1.87.07-1.28.09-2.58.22-3.88.34a29.24,29.24,0,0,1-4,.18,24.94,24.94,0,0,1-4-.63,14.11,14.11,0,0,1-2-.6,3.47,3.47,0,0,1-.54-.31,4.55,4.55,0,0,1-.4-.35c-.25-.23-.46-.44-.7-.63a11.33,11.33,0,0,0-3.34-1.65,14.76,14.76,0,0,1-3.73-1.43A15,15,0,0,1,67.17,376,14.53,14.53,0,0,1,65,372.68,23.63,23.63,0,0,0,63.64,369c-.32-.6-.43-1.27-.7-1.83a5.71,5.71,0,0,0-1.14-1.52,19,19,0,0,1-2.49-3,17.89,17.89,0,0,1-.88-1.75A4.82,4.82,0,0,1,58,360a6.22,6.22,0,0,1-.17-1,6.17,6.17,0,0,0,.2.95,5.16,5.16,0,0,0,.47.86,15.61,15.61,0,0,0,.92,1.71A19.84,19.84,0,0,0,62,365.52a5.92,5.92,0,0,1,1.25,1.55c.31.62.44,1.26.75,1.8a23.89,23.89,0,0,1,1.52,3.61,14.22,14.22,0,0,0,2.16,3.15,14,14,0,0,0,2.81,2.55,14.07,14.07,0,0,0,3.59,1.24,11.94,11.94,0,0,1,3.69,1.69c.57.4,1,1,1.44,1.1a13.51,13.51,0,0,0,1.8.48,22.1,22.1,0,0,0,3.77.48,29.56,29.56,0,0,0,3.8-.3c1.29-.15,2.59-.33,3.9-.46a18.85,18.85,0,0,1,2-.14,4.6,4.6,0,0,1,2.24.59c.66.36,1.16.76,1.69,1.06a8.12,8.12,0,0,0,1.61.75c.65.21,1.31.4,2,.58-.38-.19-.75-.39-1.12-.62a7.14,7.14,0,0,1-3-3.19c-.16-.39-.24-.66-.35-1l-.19-.51c-1.27-.46-2.53-.94-3.78-1.49-.39-.16-.77-.35-1.15-.54a12,12,0,0,1-1.1-.68l-2-1.38-2.05-1.37c-.68-.48-1.34-1-2-1.41A12.09,12.09,0,0,0,83.06,372c-.75-.28-1.56-.53-2.33-.85a7.07,7.07,0,0,1-2.19-1.29,12.28,12.28,0,0,1-1.48-2,6.35,6.35,0,0,0-1.6-1.78,3.92,3.92,0,0,1-1-.82c-.27-.36-.44-.67-.85-.74-1.57-.29-3.27,0-4.91-.35A7.43,7.43,0,0,1,66.5,363a13.79,13.79,0,0,0-2.21-1.1,14.33,14.33,0,0,1,2.25,1,6.66,6.66,0,0,0,2.22,1c1.62.31,3.26,0,4.95.24a1.24,1.24,0,0,1,.6.31c.17.17.27.35.4.49a3.84,3.84,0,0,0,.93.74,7,7,0,0,1,1.74,1.83,11.49,11.49,0,0,0,1.46,1.93,7,7,0,0,0,2.08,1.15c.76.29,1.54.51,2.34.78a12.23,12.23,0,0,1,2.26,1.13c.72.44,1.4.92,2.08,1.37l2.09,1.32,2.09,1.33a10.87,10.87,0,0,0,2.12,1.09c1,.39,2,.75,2.95,1.09-.13-.31-.26-.63-.4-.94a24.44,24.44,0,0,0-1.8-3.31,5.3,5.3,0,0,0-1.07-1.25c-.11-.09-.12-.06-.18-.11a5.29,5.29,0,0,1-.57-.21,7.19,7.19,0,0,1-1-.5,18.82,18.82,0,0,1-3.23-2.5,12.14,12.14,0,0,1-2.51-3.26c-.62-1.12-1.28-2.25-1.94-3.37-1.32-2.24-2.66-4.48-4-6.67-.36-.55-.68-1.09-1.07-1.59s-.77-1.08-1.14-1.62c-.73-1.09-1.45-2.19-2.13-3.32-.16-.29-.33-.58-.49-.88a9.33,9.33,0,0,1-.43-.92c-.26-.58-.55-1.15-.86-1.7a9.25,9.25,0,0,0-1-1.52c-.4-.44-.91-.92-1.34-1.46a3.13,3.13,0,0,1-.58-1c-.06-.35,0-.37-.06-.52a4.08,4.08,0,0,0-.1-.45,16.51,16.51,0,0,1-.42-2,1.83,1.83,0,0,1,0-.33l-.5-.17c.19-.55.4-1.09.61-1.63A5.93,5.93,0,0,0,70.2,336c-.46-1.13-1.26-2.27-1.66-3.53-.21-.55-.63-1.06-.88-1.78a3.48,3.48,0,0,1-.12-.56,3.73,3.73,0,0,0,0-.47,6.4,6.4,0,0,0-.27-.86c-.9-2.42-2-4.81-3-7.21l-1.51-3.62c-.25-.6-.49-1.21-.7-1.85a10.63,10.63,0,0,1-.33-2c-.14-1.3-.1-2.64-.14-3.92a14.55,14.55,0,0,1,0-2,13.33,13.33,0,0,1,.4-1.94,31,31,0,0,0,.69-3.83c.16-1.28.09-2.59.19-3.9.2-2.59.15-5.2.19-7.81l0-3.91c.11-1.31.37-2.59.6-3.87a38.7,38.7,0,0,0-.53,3.87l0,3.91c0,2.6.1,5.22-.06,7.83-.08,1.29,0,2.6-.13,3.91a31.68,31.68,0,0,1-.63,3.88,11.75,11.75,0,0,0-.36,1.9,13.66,13.66,0,0,0,0,1.92c.06,1.33,0,2.61.2,3.89a9.24,9.24,0,0,0,.34,1.87c.21.6.46,1.2.71,1.8l1.57,3.58c1,2.39,2.15,4.74,3.1,7.2a7.36,7.36,0,0,1,.32,1,4.93,4.93,0,0,1,.06.5,2.59,2.59,0,0,0,.09.4c.18.53.6,1.05.89,1.71.41,1.23,1.17,2.24,1.72,3.51.07.17.13.36.19.54l0-.07.19-.4a2.13,2.13,0,0,0,.09-.21,5.5,5.5,0,0,0,.15-.69c.1-.49.17-1,.24-1.53.25-2.08.43-4.22.56-6.33l0-.78a1.79,1.79,0,0,0,0-.33,2,2,0,0,0,0-.32,13.48,13.48,0,0,0-.37-1.49,23.91,23.91,0,0,1-.74-3.21l-.69-6.35a23.08,23.08,0,0,1-.13-3.29,32.11,32.11,0,0,1,.12-3.24c.13-1.08.3-2.14.44-3.19.09-.53.13-1,.23-1.6a11.51,11.51,0,0,1,.45-1.58c.34-1,.8-2,1-3l.51-3.16c.16-1.05.35-2.11.48-3.16S74,290.1,74,289c0,1.07,0,2.14-.06,3.21s-.24,2.12-.36,3.19l-.39,3.19c-.23,1.09-.65,2.07-1,3.08a12.37,12.37,0,0,0-.36,1.52c-.08.5-.11,1-.17,1.58-.1,1.07-.23,2.13-.31,3.18a30.47,30.47,0,0,0,0,3.17,25.31,25.31,0,0,0,.24,3.1l.94,6.37a22.11,22.11,0,0,0,.83,3,15.46,15.46,0,0,1,.46,1.61,3.14,3.14,0,0,1,.08.46,4.36,4.36,0,0,1,0,.48V327c0,2.15-.14,4.29-.32,6.46,0,.54-.1,1.08-.19,1.64a8.13,8.13,0,0,1-.17.89,3.55,3.55,0,0,1-.19.53l-.15.34c-.38.93-.72,1.94-1,2.93l-.46-.15a15.93,15.93,0,0,0,.41,1.78,3.81,3.81,0,0,1,.12.51c0,.16,0,.47.06.45a2.3,2.3,0,0,0,.4.64c.39.48.84.89,1.33,1.4A11,11,0,0,1,75,346.09a20.06,20.06,0,0,1,.93,1.78c.15.33.26.56.41.84s.32.55.49.82c.67,1.1,1.4,2.18,2.14,3.24.37.52.75,1.06,1.13,1.56s.79,1.1,1.15,1.64c1.43,2.2,2.81,4.41,4.17,6.64l.24.39.08-3.85,0-1.55a2.48,2.48,0,0,0-.42-1c-.5-.81-1.14-1.63-1.74-2.51a10.34,10.34,0,0,1-.86-1.44,2.58,2.58,0,0,1-.27-1l0-.78.06-3.09c0-1,0-2,0-3.09,0-.52,0-1,0-1.57a5,5,0,0,1,.12-.91,1.28,1.28,0,0,1,.34-.53,1.63,1.63,0,0,0,.23-.23,1.84,1.84,0,0,0,.3-1.16,9.16,9.16,0,0,0-.1-1.47,19.42,19.42,0,0,0-.7-2.95,19.86,19.86,0,0,1-.78-3.06,10.65,10.65,0,0,1,0-1.59l0-1.55a45.54,45.54,0,0,0-.38-6.15,46.67,46.67,0,0,0-.15-4.9c0,.08.07.17.11.24a5.8,5.8,0,0,1,.16,1.55c0,1,0,2.07.13,3.09a45.26,45.26,0,0,1,.63,6.17l0,1.55a10.25,10.25,0,0,0,.09,1.5,20.59,20.59,0,0,0,.87,2.92,20.37,20.37,0,0,1,.85,3,9.33,9.33,0,0,1,.18,1.61,2.78,2.78,0,0,1-.45,1.78c-.24.29-.42.44-.38.44a5.06,5.06,0,0,0,0,.63c0,.5,0,1,0,1.52.05,1,.12,2.07.13,3.12l.06,3.09,0,.78a1.46,1.46,0,0,0,.16.43,10,10,0,0,0,.78,1.18c.6.81,1.27,1.59,1.89,2.51a3.53,3.53,0,0,1,.73,1.85l0,1.55.12,6.2H87l.37.65a10.85,10.85,0,0,0,2.3,2.86,16.48,16.48,0,0,0,3,2.24,5.16,5.16,0,0,0,.78.39,2.19,2.19,0,0,0,.35.13,2.39,2.39,0,0,1,.68.33A6.43,6.43,0,0,1,96,373.6a25.71,25.71,0,0,1,2,3.52c.28.6.56,1.21.81,1.83l.37.93c.12.32.24.67.33.87a5.39,5.39,0,0,0,2.35,2.33,35.62,35.62,0,0,0,3.44,1.63,4.94,4.94,0,0,1,1,.57,8.65,8.65,0,0,1,.84.7,19.8,19.8,0,0,1,1.42,1.5l.15.19a8.43,8.43,0,0,0,2,.52,4.42,4.42,0,0,0,1.69-.58c-.48-.56-1-1.12-1.4-1.71-.28-.37-.56-.75-.82-1.17a5.78,5.78,0,0,1-.58-1.23c-1.31-1.07-2.6-2.17-3.82-3.36-.36-.34-.7-.7-1-1.08s-.59-.76-.92-1.12c-.64-.71-1.36-1.35-2-2.08a5.57,5.57,0,0,1-.93-1.25,5.34,5.34,0,0,0-.85-1.06,6.91,6.91,0,0,1-1.76-2.46,5.33,5.33,0,0,1-.2-.76c0-.24-.09-.47-.14-.7a7.71,7.71,0,0,0-.45-1.33c-.39-.84-.94-1.69-1.39-2.53a10.69,10.69,0,0,0-.85-1.16,6.36,6.36,0,0,1-.7-1.34c-.38-.92-.67-1.85-1-2.78s-.57-1.86-.84-2.8-.48-1.9-.84-2.78a12.91,12.91,0,0,1-1.1-2.72,6.68,6.68,0,0,1-.12-1.47c0-.49,0-1-.08-1.46a8.13,8.13,0,0,1,.18-2.91,10.42,10.42,0,0,0,.37-2.89,10.49,10.49,0,0,1-.31,2.9,7.8,7.8,0,0,0-.11,2.89c0,.49.09,1,.11,1.46a6.09,6.09,0,0,0,.15,1.43,12.44,12.44,0,0,0,1.13,2.67A26,26,0,0,1,93,357.6c.29.93.59,1.85.9,2.77s.63,1.85,1,2.73a6.32,6.32,0,0,0,.67,1.23,11.29,11.29,0,0,1,.91,1.17c.48.87,1,1.65,1.47,2.56a7.39,7.39,0,0,1,.51,1.43c.06.24.12.48.17.73a4.81,4.81,0,0,0,.18.65,6.57,6.57,0,0,0,1.67,2.2,5.74,5.74,0,0,1,1,1.2,4.67,4.67,0,0,0,.83,1.07c.66.68,1.41,1.32,2.09,2.05.34.35.68.78,1,1.11s.65.68,1,1c.89.83,1.84,1.62,2.79,2.39-.09-.43-.17-.85-.25-1.28l-.45-2.66c0-.15,0-.33-.08-.46a6,6,0,0,1-1.43-.31,5.88,5.88,0,0,1-1.28-.7c-.38-.23-.76-.46-1.16-.74a3.73,3.73,0,0,1-1.09-1.11,3.25,3.25,0,0,1-.45-1.49,7.73,7.73,0,0,0-.35-2.47,2.43,2.43,0,0,0-.76-.85,11.24,11.24,0,0,1-1.06-.88,8.15,8.15,0,0,1-1.74-2.17,5.51,5.51,0,0,1-.52-1.31c-.11-.47-.16-.91-.23-1.36a16.8,16.8,0,0,0-.45-2.6c-.27-.81-.74-1.61-1-2.45a8.5,8.5,0,0,1-.67-2.62,3.56,3.56,0,0,0-.07-1.31,8.9,8.9,0,0,0-.59-1.2,10.26,10.26,0,0,1,.65,1.17,3.6,3.6,0,0,1,.13,1.34,8.47,8.47,0,0,0,.78,2.52c.35.83.83,1.55,1.18,2.43a19.06,19.06,0,0,1,.59,2.65,6.16,6.16,0,0,0,.79,2.43,7.91,7.91,0,0,0,1.69,1.92,11.28,11.28,0,0,0,1,.78,3.26,3.26,0,0,1,1.06,1.09A7.88,7.88,0,0,1,104,373a2.23,2.23,0,0,0,1.18,1.78c.35.22.74.43,1.14.65a4.93,4.93,0,0,0,1.08.54,4.86,4.86,0,0,0,1.19.19,1.53,1.53,0,0,1,.53.13,1.09,1.09,0,0,1,.56.65c.09.31.12.49.17.73l.56,2.61a24.85,24.85,0,0,0,.7,2.48,3.71,3.71,0,0,0,.52,1c.23.33.49.67.77,1,.68.81,1.41,1.59,2.17,2.36a1.67,1.67,0,0,0,1.12-.12c.76-.38,1.9-2.48,1.9-2.48l1.34-2.28.59-.05c.17-.48.35-.95.51-1.42.23-.64.44-1.27.63-1.9.1-.32.17-.59.24-.9l.22-1,.48-2.1-.36.15c-.7-1.76-1.36-3.51-2-5.3-.31-.9-.61-1.79-.86-2.75-.07-.23-.12-.5-.17-.75s-.08-.42-.13-.64c-.1-.42-.22-.86-.35-1.31-.26-.89-.54-1.81-.73-2.78a13,13,0,0,1-.24-3v-1.12a30.21,30.21,0,0,1-2.9-3.17,9,9,0,0,1-1.09-2c-.29-.68-.54-1.37-.76-2.07a12.32,12.32,0,0,1-.5-2.18,6.78,6.78,0,0,0-.55-2,3.42,3.42,0,0,0-1.23-1.53c-.63-.33-1.27-.75-1.87-1.12a16.42,16.42,0,0,0-1.9-1,7,7,0,0,1-1.67-1.48c-.48-.56-.91-1.15-1.33-1.74s-1-1-1.41-1.64a11,11,0,0,1-1.7-4,9.36,9.36,0,0,1-.23-2.17l-.14-2.16.2,2.16a10.3,10.3,0,0,0,.29,2.14,10.9,10.9,0,0,0,1.78,3.88c.43.57,1,1,1.46,1.61s.88,1.14,1.36,1.67a6.8,6.8,0,0,0,1.6,1.35,16.16,16.16,0,0,1,2,1c.63.37,1.22.73,1.88,1.06a4,4,0,0,1,1.52,1.75,7.14,7.14,0,0,1,.67,2.16,11.46,11.46,0,0,0,.53,2c.23.68.5,1.34.79,2a8.4,8.4,0,0,0,1,1.78,24.74,24.74,0,0,0,2.23,2.36l0-3.14.13-11.21,0-2.8a22.75,22.75,0,0,1,.17-2.86c.23-1.88.52-3.73.91-5.59a38.69,38.69,0,0,0,1-5.45c0-.88,0-1.88.14-2.81,0-.47.09-.93.09-1.36a1.91,1.91,0,0,0-.07-.56.29.29,0,0,0-.09-.14.69.69,0,0,0-.2-.13,10,10,0,0,0-2.61-.59l-1.4-.19a4.73,4.73,0,0,1-1.42-.46,6.65,6.65,0,0,1-2.31-1.78,6.27,6.27,0,0,1-.89-2.75,7.54,7.54,0,0,0-.38-1.31,6.42,6.42,0,0,0-.52-1.25c-.52-.73-1.15-1.45-1.7-2.21a28.14,28.14,0,0,1-1.56-2.35,9.76,9.76,0,0,1-1.18-2.58c-.26-1.85-1-3.58-1.32-5.44s-.49-3.71-.87-5.54c.42,1.82.59,3.69,1,5.51s1.14,3.56,1.44,5.42a10.07,10.07,0,0,0,1.2,2.47,27.63,27.63,0,0,0,1.6,2.29c.56.74,1.19,1.41,1.76,2.19a6.43,6.43,0,0,1,.6,1.32,8.36,8.36,0,0,1,.43,1.37,5.71,5.71,0,0,0,.85,2.52,6.07,6.07,0,0,0,2.13,1.56,4,4,0,0,0,1.25.37l1.38.15a10.83,10.83,0,0,1,2.86.6,1.82,1.82,0,0,1,.38.24,1.55,1.55,0,0,1,.19.23.79.79,0,0,1,.1.21,2.46,2.46,0,0,1,.15.82c0,.51,0,1-.07,1.44-.08.93,0,1.81-.08,2.79a39.36,39.36,0,0,1-.85,5.6c-.34,1.82-.59,3.67-.77,5.5a22.91,22.91,0,0,0-.1,2.75l0,2.8.12,11.21.07,5.61a15.28,15.28,0,0,0,1,5.24c.14.45.28.91.4,1.39.06.24.12.49.17.73s.08.4.15.62c.24.84.56,1.71.87,2.58s.77,2,1.18,3c.2-1,.39-2,.53-3,0-.32.08-.64.1-.95s0-.63,0-1l.06-2.05c.07-1.36.15-2.73.29-4.1.08-.68.16-1.37.28-2.06a13.46,13.46,0,0,1,.52-2.08c.43-1.32,1-2.57,1.37-3.82a8.8,8.8,0,0,0,.44-1.81,7.89,7.89,0,0,0-.14-1.84c-.1-.64-.25-1.3-.38-2s-.2-1.4-.28-2.05c-.17-1.33-.36-2.68-.5-4-.06-.68-.11-1.37-.12-2.08s0-1.33,0-2a31.56,31.56,0,0,1,0-4.13,12.33,12.33,0,0,1,1.17-4.05c.26-.63.54-1.25.74-1.84a2.82,2.82,0,0,0,.12-.43,2.3,2.3,0,0,0,.05-.42c0-.37,0-.7.08-1.05.14-1.36.33-2.71.55-4,.12-.68.23-1.35.41-2l.6-1.95,2.4-7.78,1.17-3.88.59-1.94a11.74,11.74,0,0,1,.75-1.95c.59-1.23,1.24-2.42,1.85-3.62a14.29,14.29,0,0,0,.8-1.81,11.58,11.58,0,0,0,.55-1.91,17.17,17.17,0,0,0-.13-4c-.08-.67-.21-1.34-.24-2a6.53,6.53,0,0,1,.25-2.07c.36-1.3.64-2.62,1-3.94a16.68,16.68,0,0,1,1.37-3.85c.33-.6.71-1.17,1.09-1.73a7.12,7.12,0,0,0,1-1.7c0-1.3,0-2.7,0-4l-.06-4.06c0-1.35.14-2.7.21-4.06h0l.78-2.47-.74,2.48c0,1.35-.13,2.7-.15,4.05l.12,4.06c0,1.37.12,2.69.1,4.09a7.3,7.3,0,0,1-1,1.79c-.37.56-.74,1.13-1.05,1.72a16.7,16.7,0,0,0-1.29,3.8c-.31,1.32-.57,2.64-.91,4a5.82,5.82,0,0,0-.21,1.94c0,.65.17,1.32.27,2a18.83,18.83,0,0,1,.19,4.12,11.32,11.32,0,0,1-.54,2,13.83,13.83,0,0,1-.81,1.92c-.6,1.22-1.23,2.42-1.79,3.64a10.76,10.76,0,0,0-.68,1.84l-.56,2-1.12,3.92-2.27,7.78-.57,1.94c-.16.63-.26,1.3-.36,2-.2,1.32-.37,2.67-.49,4,0,.33,0,.66-.06,1a2.7,2.7,0,0,1-.06.6,3.41,3.41,0,0,1-.14.55c-.22.69-.49,1.31-.74,1.93a11.45,11.45,0,0,0-1,3.73,29.58,29.58,0,0,0,.08,4c0,.67.08,1.38.09,2.05s.07,1.31.14,2c.15,1.33.36,2.66.55,4,.1.7.16,1.33.3,2s.23,1.07.34,1.63a18.28,18.28,0,0,1,1.42-2.16,22.52,22.52,0,0,0,2.21-3.15,1.72,1.72,0,0,0,.17-.84l.14-1,.31-1.95a17.7,17.7,0,0,0,.19-1.94c0-.67.15-1.32.25-2l.3-1.95.06-.48,0-.23a1.88,1.88,0,0,1,0-.28c.08-.34.18-.65.28-1,.2-.63.42-1.25.59-1.87a2.64,2.64,0,0,0,.11-.94l0-1a19,19,0,0,1,.07-2,11.84,11.84,0,0,1,.58-1.89c.47-1.23,1-2.44,1.56-3.63-.52,1.21-1,2.43-1.44,3.67a12.82,12.82,0,0,0-.52,1.88c-.06.62,0,1.31,0,2v1.48a4,4,0,0,1-.09.52c-.16.64-.36,1.27-.54,1.9-.09.31-.18.63-.24.94a1.5,1.5,0,0,0,0,.2l0,.27-.05.49-.24,2c-.07.65-.15,1.31-.18,1.94a16.62,16.62,0,0,1-.13,2l-.25,2-.1,1,0,.22v.29a2.83,2.83,0,0,1-.17.56,22,22,0,0,1-2.2,3.37,18.43,18.43,0,0,0-1.88,3.28,7,7,0,0,1,0,.92,9.87,9.87,0,0,1-.47,2.14c-.42,1.33-.92,2.59-1.31,3.84a10.35,10.35,0,0,0-.44,1.87c-.1.64-.17,1.3-.23,2-.12,1.33-.18,2.67-.22,4l0,2c0,.33,0,.66,0,1.06s-.06.72-.1,1.06c-.17,1.4-.42,2.73-.68,4.07l-.83,4-.2,1c-.07.36-.17.74-.27,1.07-.19.67-.4,1.32-.62,2-.14.44-.3.87-.45,1.31a1.15,1.15,0,0,0,.61.13h3.09c.42-.91.83-1.83,1.27-2.73a35,35,0,0,1,6.24-9.29,22.78,22.78,0,0,0,2.32-2.65c1.31-2,2.5-4.12,3.63-6.25a44.74,44.74,0,0,0,3-6.53,46.78,46.78,0,0,0,1.39-7.07l.14-.92.17-.91a14.26,14.26,0,0,0,.22-1.74c.08-1.18.06-2.4.08-3.62,0-2.45.1-4.88,0-7.28l-.23-3.66v-.47a2.56,2.56,0,0,0,0-.39,4.46,4.46,0,0,0-.22-.81,8,8,0,0,1-.47-1.87c0-2.51,0-4.9.05-7.35l0-3.66c0-1.14-.4-2.38-.12-3.71a3,3,0,0,1,.4-.94,4.6,4.6,0,0,1,.65-.74l.14-.11.13,0,.2-.32.47-.77a9.58,9.58,0,0,0,1.44-3.23c0-.14,0-.28,0-.43a3.34,3.34,0,0,1,.08-.49c.06-.32.15-.61.23-.91.18-.58.37-1.17.56-1.75l1.19-3.46c.83-2.3,1.61-4.59,2.48-6.89s2.18-4.38,3.14-6.6a2.44,2.44,0,0,0,.12-.42v-3.2l0-3.66,0,3.66v3.2a1.72,1.72,0,0,1-.11.46c-.93,2.27-2.13,4.39-3,6.66s-1.57,4.61-2.36,6.91l-1.13,3.48q-.27.87-.51,1.74c-.08.29-.16.59-.22.87a3.39,3.39,0,0,0-.06.41,4,4,0,0,1,0,.48,9.9,9.9,0,0,1-1.44,3.45l-.46.79-.24.4-.07.11s0,0-.11.12-.06,0-.17,0a2.61,2.61,0,0,0-.82,1.36c-.23,1.1.17,2.28.2,3.57l0,3.66.08,7.27a6.55,6.55,0,0,0,.45,1.66,5.27,5.27,0,0,1,.27.95,3.07,3.07,0,0,1,.05.53l0,.44.29,3.63c.2,2.47.13,4.92.17,7.35,0,1.21,0,2.43,0,3.69a15.35,15.35,0,0,1-.2,1.89v0a2.94,2.94,0,0,0,2-.95,3.39,3.39,0,0,0,.68-1.32l.49-1.63,1.92-6.53,0-.13.12-.06a22.77,22.77,0,0,1,2.33-1,8.11,8.11,0,0,1,1.24-.27l1.23-.21,1.23-.21,1.24-.11c.83-.07,1.65-.13,2.48-.18a16,16,0,0,1,2.5.09,4.84,4.84,0,0,0,1.2-.11,5.26,5.26,0,0,0,1.1-.52c.71-.41,1.36-.93,2.08-1.36a11.44,11.44,0,0,0,2.15-1.22,11.22,11.22,0,0,1-2.12,1.29c-.69.44-1.33,1-2,1.42a5.17,5.17,0,0,1-1.13.56,4.49,4.49,0,0,1-1.26.16,15.68,15.68,0,0,0-2.47,0c-.82.07-1.64.15-2.46.25l-1.23.15-1.21.24-1.21.25a6.26,6.26,0,0,0-1.17.29,19.7,19.7,0,0,0-2.11.94l-1.69,6.44-.43,1.64a4.5,4.5,0,0,1-.82,1.69,3.6,3.6,0,0,1-1.57,1.1,4.33,4.33,0,0,1-1.28.24l-.1.77a46.55,46.55,0,0,1-1.32,7.29,45.34,45.34,0,0,1-2.94,6.83c-1.12,2.19-2.27,4.34-3.61,6.46a11.57,11.57,0,0,1-1.21,1.54L133.81,372a32.8,32.8,0,0,0-2.25,2.77,35,35,0,0,0-3.55,6.19c-.25.53-.48,1.08-.72,1.62V384H129l2.29-2.7a17.25,17.25,0,0,1,2.6-2.68c2-1.64,4.38-2.4,6.23-3.61a11.57,11.57,0,0,0,2.51-2.2c.78-.87,1.55-1.77,2.32-2.67a40.47,40.47,0,0,1,5-5.23,12.52,12.52,0,0,1,1.56-1.05l1.57-.87,3.14-1.68c1-.57,2.07-1.14,3.06-1.75a16.11,16.11,0,0,0,1.42-1c.41-.31.92-.78,1.43-1.11a19.67,19.67,0,0,1,3.25-1.68c1.09-.48,2.16-.95,3.19-1.5,2.07-1.11,4.12-2.31,6.09-3.6a26.51,26.51,0,0,0,2.81-2.08,33.78,33.78,0,0,1,2.82-2.24c1-.69,2-1.33,3-2a20.73,20.73,0,0,0,2.71-2.23c.44-.4.81-.82,1.28-1.26a5.54,5.54,0,0,1,1.77-.69c1.17-.29,2.33-.52,3.48-.8a23,23,0,0,0,3.38-1c1.09-.44,2.17-.93,3.24-1.44,2.14-1,4.27-2.07,6.35-3.2s4.17-2.29,6.13-3.6,4-2.55,5.86-4c-1.82,1.53-3.91,2.7-5.79,4.14S207.65,332.73,205.63,334Zm-61.49-23.58v0c.12,0,.08,0,0-.06Z" style="fill:#263238"></path><path d="M45,403.21S68.87,390.93,77.44,390s12.13,6.49,12.13,6.49,28.22-4,34.12-3.82,11.16,6.52,11.16,6.52,12.84-.68,16.9.67,3.48,3.51,6.19,4.86-5.52-2.15,19.49,10.69,28.39,15.55,28.39,15.55,22.31,5.4,27,6.08,34.47.68,34.47.68" style="fill:none;stroke:#263238;stroke-linecap:round;stroke-miterlimit:10"></path><path d="M146,406.74s14.71,3.08,10.61,7.87-16.76,10.26-32.15,7.18-14-9.83-10.61-12,1,1.71,13.34,2.05,12.32-5.13,12.32-5.13" style="fill:none;stroke:#263238;stroke-linecap:round;stroke-miterlimit:10"></path><line x1="143.04" y1="411.12" x2="141.02" y2="410.07" style="fill:none;stroke:#263238;stroke-linecap:round;stroke-miterlimit:10"></line><line x1="153.75" y1="416.66" x2="145.69" y2="412.49" style="fill:none;stroke:#263238;stroke-linecap:round;stroke-miterlimit:10"></line><line x1="147.68" y1="420.08" x2="144.25" y2="417" style="fill:none;stroke:#263238;stroke-linecap:round;stroke-miterlimit:10"></line><line x1="134.33" y1="412.21" x2="139.47" y2="416.32" style="fill:none;stroke:#263238;stroke-linecap:round;stroke-miterlimit:10"></line><line x1="136.25" y1="422.46" x2="132.28" y2="417" style="fill:none;stroke:#263238;stroke-linecap:round;stroke-miterlimit:10"></line><line x1="124.42" y1="421.79" x2="124.07" y2="418.71" style="fill:none;stroke:#263238;stroke-linecap:round;stroke-miterlimit:10"></line><path d="M173.63,421.07s14.71,3.08,10.61,7.87-16.77,10.26-32.16,7.18-14-9.82-10.6-12,1,1.71,13.34,2.05,12.31-5.13,12.31-5.13" style="fill:none;stroke:#263238;stroke-linecap:round;stroke-miterlimit:10"></path><line x1="170.71" y1="425.45" x2="168.68" y2="424.4" style="fill:none;stroke:#263238;stroke-linecap:round;stroke-miterlimit:10"></line><line x1="181.41" y1="430.99" x2="173.35" y2="426.82" style="fill:none;stroke:#263238;stroke-linecap:round;stroke-miterlimit:10"></line><line x1="175.34" y1="434.41" x2="171.92" y2="431.34" style="fill:none;stroke:#263238;stroke-linecap:round;stroke-miterlimit:10"></line><line x1="162" y1="426.55" x2="167.13" y2="430.65" style="fill:none;stroke:#263238;stroke-linecap:round;stroke-miterlimit:10"></line><line x1="163.92" y1="436.79" x2="159.95" y2="431.34" style="fill:none;stroke:#263238;stroke-linecap:round;stroke-miterlimit:10"></line><line x1="152.08" y1="436.12" x2="151.74" y2="433.05" style="fill:none;stroke:#263238;stroke-linecap:round;stroke-miterlimit:10"></line><path d="M127,427.07s14.71,3.08,10.61,7.87-16.76,10.26-32.15,7.18-14-9.82-10.61-12,1,1.71,13.34,2.05,12.32-5.13,12.32-5.13" style="fill:none;stroke:#263238;stroke-linecap:round;stroke-miterlimit:10"></path><line x1="124.04" y1="431.45" x2="122.02" y2="430.4" style="fill:none;stroke:#263238;stroke-linecap:round;stroke-miterlimit:10"></line><line x1="134.75" y1="436.99" x2="126.69" y2="432.82" style="fill:none;stroke:#263238;stroke-linecap:round;stroke-miterlimit:10"></line><line x1="128.68" y1="440.41" x2="125.25" y2="437.34" style="fill:none;stroke:#263238;stroke-linecap:round;stroke-miterlimit:10"></line><line x1="115.33" y1="432.55" x2="120.47" y2="436.65" style="fill:none;stroke:#263238;stroke-linecap:round;stroke-miterlimit:10"></line><line x1="117.25" y1="442.79" x2="113.28" y2="437.34" style="fill:none;stroke:#263238;stroke-linecap:round;stroke-miterlimit:10"></line><line x1="105.42" y1="442.12" x2="105.07" y2="439.05" style="fill:none;stroke:#263238;stroke-linecap:round;stroke-miterlimit:10"></line><path d="M101.17,413.93s10.54,2.2,7.6,5.63-12,7.36-23,5.15-10-7-7.6-8.58.74,1.23,9.56,1.47,8.83-3.67,8.83-3.67" style="fill:none;stroke:#263238;stroke-linecap:round;stroke-miterlimit:10"></path><line x1="99.08" y1="417.06" x2="97.63" y2="416.31" style="fill:none;stroke:#263238;stroke-linecap:round;stroke-miterlimit:10"></line><line x1="106.75" y1="421.03" x2="100.98" y2="418.04" style="fill:none;stroke:#263238;stroke-linecap:round;stroke-miterlimit:10"></line><line x1="102.4" y1="423.49" x2="99.95" y2="421.28" style="fill:none;stroke:#263238;stroke-linecap:round;stroke-miterlimit:10"></line><line x1="92.84" y1="417.85" x2="96.52" y2="420.79" style="fill:none;stroke:#263238;stroke-linecap:round;stroke-miterlimit:10"></line><line x1="94.21" y1="425.19" x2="91.37" y2="421.28" style="fill:none;stroke:#263238;stroke-linecap:round;stroke-miterlimit:10"></line><line x1="85.73" y1="424.71" x2="85.49" y2="422.51" style="fill:none;stroke:#263238;stroke-linecap:round;stroke-miterlimit:10"></line><path d="M59.93,401s-10.54,2.21-7.6,5.64,12,7.35,23,5.15,10-7,7.6-8.58-.73,1.22-9.56,1.47S64.59,401,64.59,401" style="fill:none;stroke:#263238;stroke-linecap:round;stroke-miterlimit:10"></path><line x1="62.03" y1="404.1" x2="63.48" y2="403.35" style="fill:none;stroke:#263238;stroke-linecap:round;stroke-miterlimit:10"></line><line x1="54.36" y1="408.07" x2="60.13" y2="405.08" style="fill:none;stroke:#263238;stroke-linecap:round;stroke-miterlimit:10"></line><line x1="58.71" y1="410.52" x2="61.16" y2="408.32" style="fill:none;stroke:#263238;stroke-linecap:round;stroke-miterlimit:10"></line><line x1="68.27" y1="404.88" x2="64.59" y2="407.83" style="fill:none;stroke:#263238;stroke-linecap:round;stroke-miterlimit:10"></line><line x1="66.89" y1="412.23" x2="69.74" y2="408.32" style="fill:none;stroke:#263238;stroke-linecap:round;stroke-miterlimit:10"></line><line x1="75.37" y1="411.75" x2="75.62" y2="409.54" style="fill:none;stroke:#263238;stroke-linecap:round;stroke-miterlimit:10"></line><path d="M200.17,432.93s10.54,2.2,7.6,5.63-12,7.36-23,5.15-10-7-7.6-8.58.74,1.23,9.56,1.47,8.83-3.67,8.83-3.67" style="fill:none;stroke:#263238;stroke-linecap:round;stroke-miterlimit:10"></path><line x1="198.08" y1="436.06" x2="196.63" y2="435.31" style="fill:none;stroke:#263238;stroke-linecap:round;stroke-miterlimit:10"></line><line x1="205.75" y1="440.03" x2="199.98" y2="437.04" style="fill:none;stroke:#263238;stroke-linecap:round;stroke-miterlimit:10"></line><line x1="201.4" y1="442.49" x2="198.95" y2="440.28" style="fill:none;stroke:#263238;stroke-linecap:round;stroke-miterlimit:10"></line><line x1="191.84" y1="436.85" x2="195.52" y2="439.79" style="fill:none;stroke:#263238;stroke-linecap:round;stroke-miterlimit:10"></line><line x1="193.21" y1="444.19" x2="190.37" y2="440.28" style="fill:none;stroke:#263238;stroke-linecap:round;stroke-miterlimit:10"></line><line x1="184.73" y1="443.71" x2="184.49" y2="441.51" style="fill:none;stroke:#263238;stroke-linecap:round;stroke-miterlimit:10"></line></g><g id="freepik--character-2--inject-37"><path d="M489,289.46s-.29-7.59,7.59-18.39a150.81,150.81,0,0,0,13.72-23.94s6.71-12.55,9.92-8.17-5,24.81-6.13,33.57-3.5,20.43-4.67,23.93-17.81.59-20.72-1.16S489,289.46,489,289.46Z" style="fill:#fff;stroke:#263238;stroke-miterlimit:10"></path><path d="M525.3,245.28s-7.48,11.63-11.42,10.4-5.82-4.06-6-15.81,2.63-19.11,2.06-22-11-20.42-2.31-38.6,21-37.22,23.09-35.56,28,15.91,32.72,18.17,1.46,14.6-2.12,25.5-15.49,23-19.82,28.72-7.46,19.72-8.85,22S525.3,245.28,525.3,245.28Z" style="fill:#5061FC;stroke:#263238;stroke-miterlimit:10"></path><path d="M507.59,179.29c8.66-18.18,21-37.22,23.09-35.56.2.15.61.42,1.2.78-1,1.12-2.31,2.5-3.34,3.7-2.17,2.52-8,12-8,12s9.05-4.74,11.52-5.18,1.84.88-.22,2.48-10.06,6.2-11.2,7.92-5.72,15.39-6.29,19.32,4.74-4.53,7-4.45.06,3.27-2.55,10.11-3.86,16.26-1.88,17.53,8.86-7.74,10.83-7.13,1.37,10,2.46,12.49,3.44,2.28,6.61-2.35a10.62,10.62,0,0,0,1.79-9.17c-.15-1-2.55-10.27-.25-13.05s5.73,13.08,5.73,13.08,9.2-10.5,10.33-12.87-2.56-10.92-3.26-13.51,1.15-7.86,3.31-4.25,5.46,12.3,5.46,12.3l5.34-19.43c1.7,4.54-1,14.41-4,23.32-3.58,10.91-15.49,23-19.82,28.72s-7.46,19.72-8.85,22-7.31,7.19-7.31,7.19-7.48,11.63-11.42,10.4-5.82-4.06-6-15.81,2.63-19.11,2.06-22S498.93,197.47,507.59,179.29Z" style="fill:#263238;stroke:#263238;stroke-miterlimit:10"></path><path d="M375.43,246s-16.93,14-22.77,20.73a81.08,81.08,0,0,1-8.76,9.05s-10.22,4.67-19.85,16.34-29.19,44.08-29.19,44.08-11.68,7.59-13.14,10.8-5.54,18.39-5.83,20.73-3.21,4.08-.88,5,5.26-2.63,7.88-5.55,7.3-9.05,9.05-11.38,7.3-7,7.3-7-2,10.22-2,13.43,1.75,8.47,4.67,6.42,1.46-5.54,2.92-8.17,5-9.05,5.83-11.68,2.92-16,2.92-16,13.14-16.93,22.48-20.73,21.31-17.51,21.31-17.51l28.77-22.53s8.88,19.9,15.6,26.62a66.12,66.12,0,0,0,11.67,9.63s4.09,7.59,12,11.09S442,325.36,444,327.11s-.87,5.26,16.35,10.51,27.44.29,31.82-5.25,9.05-16.06-1.75-29.78-23.94-35.32-36.49-42-34.74-11.68-34.74-11.68Z" style="fill:#fff;stroke:#263238;stroke-miterlimit:10"></path><path d="M345.94,279s-1.88,12.21,9.21,14" style="fill:none;stroke:#263238;stroke-miterlimit:10"></path><path d="M289.61,351.05s-6.43,8.17-7.3,8.76-8.17,5-9.63,6.71,2.91,1.75,7.59-.29,7.29-4.67,9.63-6.72,9.34-10.8,9.34-10.8" style="fill:#fff;stroke:#263238;stroke-miterlimit:10"></path><path d="M461,300s-1.16,5.83-10.8,9" style="fill:none;stroke:#263238;stroke-miterlimit:10"></path><path d="M533.93,323l-37.95,28s26.86,21.89,30.95,23.94,7.29,3.79,12.84-.3,5.25-6.13,7.88-11.67,14-19.27,17.81-34.45,8.17-49.91,8.17-52.83,1.17-11.39,1.17-11.39.58-16.05-3.21-14-8.47,16.93-9.05,19-4.38,14.3-14,29.48S533.93,323,533.93,323" style="fill:#fff;stroke:#263238;stroke-miterlimit:10"></path><path d="M444,327.11s5.55,3.21,17.23,4.67,24.81,2.34,32.11-8.75-2.34-24.82-1.76-26.86,11.1-5.55,23.65.58,18.68,26,19,29.2.59,5,.59,5-3.21,10.21-10.8,15.76-18.69,8.17-21,8.47-12.26-3.8-15.18-5.84-18.68-4.67-18.68-4.67-12-6.72-17.52-9.93A19.4,19.4,0,0,1,444,327.11Z" style="fill:#263238;stroke:#263238;stroke-miterlimit:10"></path><path d="M541.86,357.45c.37,1.91.66,3.7.83,5.28" style="fill:none;stroke:#263238;stroke-miterlimit:10"></path><path d="M534.81,330.91s3.9,12.23,6.27,22.82" style="fill:none;stroke:#263238;stroke-miterlimit:10"></path><path d="M562.25,257.06s1.75,13.72,5.83,14.3,7-1.17,12.26-11.68,5.84-18.39,7.59-20.72,18.69-13.72,18.69-33.86-2.92-42.62-5.55-42S569,165.4,563.71,165.4s-7.59,12.55-9.05,23.93,4.08,27.44,5.54,34.45-1.75,21-1.46,23.64S562.25,257.06,562.25,257.06Z" style="fill:#5061FC;stroke:#263238;stroke-miterlimit:10"></path><path d="M606.62,205.1c0-20.15-2.92-42.62-5.55-42-.25.06-.74.12-1.42.2.46,1.45,1,3.24,1.42,4.76.87,3.22,2,14.31,2,14.31s-6.13-8.18-8.17-9.64-2,0-.88,2.34,6.43,9.92,6.72,12-1.46,16.35-2.63,20.14-2.34-6.13-4.38-7-1.46,2.92-2,10.22-3.5,16.35-5.84,16.64-4.67-10.8-6.71-11.09-5.55,8.46-7.59,10.21-4.09.59-5-5A10.66,10.66,0,0,1,569,212.1c.58-.87,6.71-8.17,5.84-11.67s-10.8,9.34-10.8,9.34-3.8-13.43-3.8-16.06,7-8.76,8.76-10.8,2.33-7.59-1.17-5.25-10.21,8.75-10.21,8.75l3.53-19.84c-3.48,3.37-5.26,13.46-6.45,22.76-1.46,11.39,4.08,27.44,5.54,34.45s-1.75,21-1.46,23.64,3.51,9.64,3.51,9.64,1.75,13.72,5.83,14.3,7-1.17,12.26-11.68,5.84-18.39,7.59-20.72S606.62,225.24,606.62,205.1Z" style="fill:#263238;stroke:#263238;stroke-miterlimit:10"></path><path d="M449.28,293l9.34,2.34s7.3,14.3,14.89,19,15.47,11.09,16.34,12.26-9.63,6.13-18.39,14.59S440.81,369.44,437,371.19s-17.52-.29-19.27.88-7.88,9.05-10.51,10.5-6.13,3.22-4.37,4.09,2.91.88,5.54-.58,10.51-5,10.51-5-3.21,7.29-4.09,8.75S404.91,401,403.74,403.3s-.87,3.21,2,1.46,10.8-9.05,13.14-10.8l2.34-1.75s-.59,5.84-1.76,7.3-6.71,8.75-7.88,9.92-.58,3.79,2.05,2.63,9.63-6.72,9.63-6.72l4.67-7s-2.92,7.88-4.09,10.21-4.08,5-3.21,5.55,2.92.58,5-.58a28.55,28.55,0,0,0,6.72-6.43c.58-1.16,2.33-6.13,2.33-6.13s.88,6.72-.29,9.93,2.34,3.21,3.21,0,4.67-15.47,5-16.93,2.34-12.26,2.34-12.26,38.24-18.39,47.29-23.94,25.69-20.43,25.39-23.35-11.38-27.15-19.26-39.11-19.27-26.57-19.27-26.57-1.75-8.17-12.26-13.43-24.52-6.42-33.57-6.71a105.18,105.18,0,0,0-14,.29L407,265.52" style="fill:#fff;stroke:#263238;stroke-miterlimit:10"></path><path d="M416,275.74s14-6.42,21.6-8.76" style="fill:none;stroke:#263238;stroke-miterlimit:10"></path><path d="M423.46,307.41a17.44,17.44,0,0,0,4.22,1.9" style="fill:none;stroke:#263238;stroke-miterlimit:10"></path><path d="M409.58,288.58s3.44,9.66,10.19,16" style="fill:none;stroke:#263238;stroke-miterlimit:10"></path><path d="M371.48,222.55s-.2,16.54.81,18.35,3.43,19,6.65,23.2,7.47,15.53,14.32,16.34,18.36-11.1,18.36-11.1,7.66-8.27,9.48-11.69,1.61-11.5,1.61-11.5l2-4.84s4.84-8.68,2-17.75-12.31-12.71-19.57-11.5-35.9,7.46-35.9,7.46Z" style="fill:#fff;stroke:#263238;stroke-miterlimit:10"></path><path d="M374.3,198.35s1.62.8-6.25.4S358,195.92,358,195.92s-1,5.45,2.22,7.06a15.78,15.78,0,0,0,7.46,1.21s-2-1-6.86,2-6.86,5.85-5,8.07a16.14,16.14,0,0,0,3,3,4.13,4.13,0,0,1,2.22-3.84,20.28,20.28,0,0,1,4.24-1.61s-5.45,3.43-4.24,5.24a5.39,5.39,0,0,0,3,2.22l2.42-3.43a4.37,4.37,0,0,1-1.41,5.65c-3.23,2.42-8.88,1.41-8.88,1.41a12.27,12.27,0,0,0,7.26,2.83c4.44.2,8.88-1.82,11.9-3.43s10.09-.81,10.69-.41-4.64,1.42-7.26,2.83,6.66-.2,10.69,2.22,13.52,3,15.94-1.82a17.1,17.1,0,0,1,6.86-7.06,9.71,9.71,0,0,0-2,5.65,15.26,15.26,0,0,1-.81,5.24,14.73,14.73,0,0,0,2.83-3.63,23.59,23.59,0,0,1,2.62-3.83s-1.82,7.87-.61,10.29a18.31,18.31,0,0,0,3.83,5.24,10.07,10.07,0,0,0,3,1s.4-7.46,2.22-10.08,3.63.4,3.83,3.63-2.42,9.68-2.42,9.68a22.07,22.07,0,0,0,1.21,4.84c.81,1.81,4.64-13.31,3.43-23.2s-6.66-20.17-14.32-25.21-26.42-4.64-32.07-2.22A38,38,0,0,1,374.3,198.35Z" style="fill:#263238;stroke:#263238;stroke-miterlimit:10"></path><path d="M363.87,243.48a9.21,9.21,0,0,1,3.37-4.65c2.56-1.76,6.72-3.84,9.28-4.16a83.23,83.23,0,0,1,23.21.64c11,1.92,14.88,4.32,16,4.16s5.28-3.36,8.64-6.4,5.92-6.4,5.6-4.32a53.47,53.47,0,0,1-1.44,5.92c-.16.48-8.16,7.05-8.64,7.69s-1.12,7-4.32,12.48-10.08,8.48-11.84,8.32,1.28.48,4.16-6.24,2.4-10.56.32-12.64S387.08,240,378,240.59,363.87,243.48,363.87,243.48Z" style="fill:#263238;stroke:#263238;stroke-miterlimit:10"></path><path d="M378.6,256.92s5,7.52,6.24,8.16,12.32-5.44,12.32-5.44a45.73,45.73,0,0,0-6.4-9.44c-3.52-3.68-4.8-3.36-6.72-2.08S378.6,256.92,378.6,256.92Z" style="fill:#263238;stroke:#263238;stroke-miterlimit:10"></path><path d="M369.64,240.11s-5.45,1.45-5.77,3.37,1.77,12.16,8.49,15.68,10.56-10.88,14.24-9.44S394.12,261.56,402,263s11.52-17.28,10.72-19S394.6,235.15,369.64,240.11Z" style="fill:#fff;stroke:#263238;stroke-miterlimit:10"></path><path d="M371.75,241.32s-4.83,1.27-5.11,3,1.56,10.78,7.52,13.91,9.37-9.66,12.64-8.38,6.67,10.51,13.62,11.78,10.22-15.33,9.51-16.89S393.89,236.92,371.75,241.32Z" style="fill:#fff;stroke:#263238;stroke-miterlimit:10"></path><ellipse cx="398.12" cy="250.68" rx="1.36" ry="2.56" style="fill:#263238"></ellipse><line x1="371.97" y1="244.77" x2="374.67" y2="253.77" style="fill:none;stroke:#263238;stroke-miterlimit:10"></line><path d="M376.17,243s3.3-2.4,6.3-1.2" style="fill:none;stroke:#263238;stroke-miterlimit:10"></path><path d="M396.26,242.07s6.6-.6,9,3.3" style="fill:none;stroke:#263238;stroke-miterlimit:10"></path><path d="M381.24,248.6c0,1.41-.61,2.56-1.36,2.56s-1.36-1.15-1.36-2.56.61-2.56,1.36-2.56S381.24,247.18,381.24,248.6Z" style="fill:#263238"></path><path d="M400.82,275.8,398,269.41l1.42,3.19L398,269.41c.17-.08,16.51-7.43,28.66-20.19,8.86-9.3,12.46-36.32,11.59-49.32a3.11,3.11,0,0,1,3.25-3.31l1.09,0a3.11,3.11,0,0,1,3,2.81c.87,9.69-2.16,42.36-13.83,54.61C418.58,267.84,401.54,275.49,400.82,275.8Z" style="fill:#5061FC;stroke:#263238;stroke-miterlimit:10"></path><path d="M399.67,270a9.28,9.28,0,1,1-12.92-2.88A9.36,9.36,0,0,1,399.67,270Z" style="fill:#263238;stroke:#263238;stroke-miterlimit:10"></path><ellipse cx="389.96" cy="275.17" rx="9.28" ry="9.44" transform="translate(-86.93 256.23) rotate(-32.93)" style="fill:#fff;stroke:#263238;stroke-miterlimit:10"></ellipse><path d="M395.59,271.52a6.7,6.7,0,1,1-9.33-2.08A6.78,6.78,0,0,1,395.59,271.52Z" style="fill:#263238;stroke:#263238;stroke-miterlimit:10"></path><path d="M390.76,272.92a3.35,3.35,0,1,1-4.66-1A3.37,3.37,0,0,1,390.76,272.92Z" style="fill:#fff;stroke:#263238;stroke-miterlimit:10"></path></g><g id="freepik--character-1--inject-37"><path d="M282,167.65s19.39-8.9,25.42-14,8.9-10.8,9.86-14.62,1.9-15.25,11.12-20.65,19.07-4.45,22.88-5.72a51.27,51.27,0,0,0,7.31-3.18s2.22-12.08,7-12.71,13.67,14.62,15.25,15.57,11.45,2.86,17.8,6,22.88,13.35,22.25,15.57-7.31-3.81-16.21-8.58-26.06-7.95-31.46-7.95-9.85,0-21.29,12.08-15.26,14.62-17.8,22.88-3.5,13.35-9.53,20.34l-6,7s-12.08-4.45-23.52-4.13-15.89.32-15.89.32S277.91,172.73,282,167.65Z" style="fill:#fff;stroke:#263238;stroke-miterlimit:10"></path><path d="M420.92,134c.63-2.22-15.89-12.39-22.25-15.57s-16.21-5.09-17.8-6-10.48-16.21-15.25-15.57-7,12.71-7,12.71,12.71,3.81,14.62,7.94c5.4,0,22.56,3.18,31.46,7.95S420.28,136.18,420.92,134Z" style="fill:#263238;stroke:#263238;stroke-miterlimit:10"></path><path d="M171.62,238.69s10.95,13.49,18.26,22.7,12.71,11.45,17.16,11.45a29.34,29.34,0,0,1,7.63,1s15.25,11.44,26.06,6.67,14.3-13,14.3-13,12.07-7.31,15.25-12.39,9.22-21.61,12.08-25.74,25.1-18.43,25.1-18.43,23.84,2.86,33.05.95,19.07-5.72,21-11.12,13.35-18.12,20.66-38.14,20.33-39.41,22.88-42.27,14.93-6.67,21-10.48,23.84-20.66,26.7-25.43,7.62-2.86,2.86-4.76-27.65-3.18-31.78-1.27-19.07,21.29-19.71,22.88-9.21.32-10.17,4.45-.63,13.66-1.27,15.57S374.2,140.63,366.89,146s-15.25,17.47-16.52,23.19S347.82,182,347.82,182s-13.34-2.86-20-6.68S312.87,167,304.29,167a43.16,43.16,0,0,0-14.3,2.22s-11.76-6.67-19.71-6-18.43,5.72-22.24,12.71-5.72,20-6.36,22.88-8.9,11.44-13.66,14.3-8,.95-10.49,0-11.76-7.63-17.48-10.49-13-7.62-20-7.94-20,9.85-20.66,13S171.62,238.69,171.62,238.69Z" style="fill:#5061FC;stroke:#263238;stroke-miterlimit:10"></path><path d="M286.4,172.23a15.34,15.34,0,0,0-6.75,7.29" style="fill:none;stroke:#263238;stroke-miterlimit:10"></path><path d="M452.7,84.38c2.86-4.76,7.62-2.86,2.86-4.76s-27.65-3.18-31.78-1.27-19.07,21.29-19.71,22.88-9.21.32-10.17,4.45-.63,13.66-1.27,15.57S374.2,140.63,366.89,146s-15.25,17.47-16.52,23.19S347.82,182,347.82,182s-13.34-2.86-20-6.68c-4.87-2.78-10.6-5.9-16.67-7.38a154.33,154.33,0,0,0-6.84,19.46c-4.33,14.72-4.09,23.69-3.5,27.91,3.81-2.55,6.67-4.39,6.67-4.39s23.84,2.86,33.05.95,19.07-5.72,21-11.12,13.35-18.12,20.66-38.14,20.33-39.41,22.88-42.27,14.93-6.67,21-10.48S449.84,89.15,452.7,84.38Z" style="fill:#fff;stroke:#263238;stroke-miterlimit:10"></path><path d="M347.82,182s11.66,1.65,13.68,4.47" style="fill:none;stroke:#263238;stroke-miterlimit:10"></path><path d="M279.87,164.78a25.75,25.75,0,0,0-9.59-1.58c-7.94.63-18.43,5.72-22.24,12.71a34.06,34.06,0,0,0-2.33,5.58C259.41,167.64,272.44,166.89,279.87,164.78Z" style="fill:#fff;stroke:#263238;stroke-miterlimit:10"></path><path d="M222.54,278.41c1.79-.53,3.2-1.91,2-5.26-2.54-7-10.49-7.62-14.62-21.92s-2.22-21.61,2.23-26.38,12.71-6,14.62-7.63c1.22-1-.17-1.77-2.16-2.77-3,.56-5.18-.66-7.06-1.36-2.54-1-11.76-7.63-17.48-10.49s-13-7.62-20-7.94-20,9.85-20.66,13,12.25,31,12.25,31,10.95,13.49,18.26,22.7,12.71,11.45,17.16,11.45a29.34,29.34,0,0,1,7.63,1A50,50,0,0,0,222.54,278.41Z" style="fill:#fff;stroke:#263238;stroke-miterlimit:10"></path><path d="M191.49,246.61a10.77,10.77,0,0,0,3.12.5" style="fill:none;stroke:#263238;stroke-miterlimit:10"></path><path d="M171.62,238.69s9.77,4.55,16.79,7" style="fill:none;stroke:#263238;stroke-miterlimit:10"></path><path d="M179.74,204.94s11.75,10.37,15.56,24.54" style="fill:none;stroke:#263238;stroke-miterlimit:10"></path><line x1="205.32" y1="241.58" x2="194.61" y2="249.87" style="fill:none;stroke:#263238;stroke-miterlimit:10"></line><path d="M455.56,79.62c-4.77-1.91-27.65-3.18-31.78-1.27s-19.07,21.29-19.71,22.88-9.21.32-10.17,4.45c-.6,2.6-.69,7.35-.84,11l.21.14s4.77,2.22,7.94.63,7-3.81,14-3.17l1.38.13a71.66,71.66,0,0,0,9.42-4.58c6-3.82,23.84-20.66,26.7-25.43S460.32,81.52,455.56,79.62Z" style="fill:#5061FC;stroke:#263238;stroke-miterlimit:10"></path><path d="M438.6,77.52c-2-.08-4-.12-5.82-.11-2.1,3.61-5.85,10.11-7.41,13C423.25,94.36,437.26,79,438.6,77.52Z" style="fill:#263238;stroke:#263238;stroke-miterlimit:10"></path><path d="M393.9,105.68c-.6,2.6-.69,7.35-.84,11l.21.14s4.77,2.22,7.94.63,7-3.81,14-3.17l1.38.13a71.66,71.66,0,0,0,9.42-4.58c6-3.82,23.84-20.66,26.7-25.43s7.62-2.86,2.86-4.76a12.79,12.79,0,0,0-2-.56,52,52,0,0,0-8.51,8.18c-6,7.31-19.7,16.53-19.7,16.53a20.12,20.12,0,0,0-7.31-4.13c-3.82-1-14,1.59-14,1.59C403.44,102.82,394.86,101.55,393.9,105.68Z" style="fill:#263238;stroke:#263238;stroke-miterlimit:10"></path><path d="M213.08,246.14s2.22,15.57,16.53,19.39,20.65-7,22.56-10.81,4.13-9.85,4.13-9.85,6.36-7.31,12.71-14.94a160.32,160.32,0,0,1,13.35-14s21.61-12.39,30.82-17.8,25.43-9.85,27.65-14.61,2.55-9.54,2.86-12.4-.63-4.77-.95-7.31-.95-7.62-2.54-6-1,3.5-.32,6a20.48,20.48,0,0,1,.63,4.45,53.3,53.3,0,0,0-4.44-7.31c-2.23-2.86-.32-4.76-2.23-2.86s.32,4.13,1,6a57.23,57.23,0,0,0,3.18,6.36l-7.31-5.41s-1.59,1.59.64,3.82a30.18,30.18,0,0,1,3.49,4.13s-1.9,4.45-1.58,6.35l.31,1.91a363.89,363.89,0,0,1-36.22,6.36c-17.17,1.9-24.16,3.81-25.11,5.4s-25.74,16.52-33.69,20-21,12.08-24.15,18.43S213.08,246.14,213.08,246.14Z" style="fill:#fff;stroke:#263238;stroke-miterlimit:10"></path><path d="M256.3,244.87s-8.58,12.08-17.48,13" style="fill:none;stroke:#263238;stroke-miterlimit:10"></path><path d="M141.8,218.18s-7.16,1.1-11.28-2.2.55-5.5-.83-8.25-9.9-5.23-8.8-13.48,9.9-8.8,10.73-12.65-7.15-7.43-.83-19.8,14.58-12.11,14.58-12.11-8,5.5-9.63,9.08A50.76,50.76,0,0,0,133,167.3s5-11.28,12.38-14.58,18.71.55,22,1.92,11.55-1.1,13.75-5.77,11-20.08,22.28-20.63,16.78,6.87,19,9.35,7.15,2.48,9.9-3.3,16-3.3,17.6-2.2,1.66-5,8.53-7.43,13.2,4.68,12.38,11.83,7.43,12.65,8.25,9.63,3.85,1.65-4.67,3-10.18-7.15-13.21-6-4.95,3.85-3.85,6.33,3.58,8,.28,12.38S250.44,161,248,164s0,16.5-6.05,19.53-4.13,2.47-6,3,2.2,9.63-3,14.85-6.09,8.55-13.52,6.35-9.48,4.92-14.13,5.44c-14.68,1.63-23-7.38-23-7.38Z" style="fill:#263238;stroke:#263238;stroke-miterlimit:10"></path><path d="M146.75,191.23s-11.83,12.37-9.35,22.28,12.37,21.18,16.77,24.2,8,7.43,15.41,8.25,10.72-1.1,12.93-6.32,4.4-18.71,4.12-25.58-6-17.61-8-20.63S166,189.58,166,189.58l1.93-3.3s-12.11-2.2-14.86.27-.55,8-.55,8Z" style="fill:#fff;stroke:#263238;stroke-miterlimit:10"></path><path d="M185,196.45s-14.3.83-25.3,3.85-23.94,11-24.49,12.66,6.88,18.7,11.28,19.25,10.45-2.47,12.38-3.57,4.68-13.76,7.15-13.48,9.08,8,10.73,8,12.1-2.75,13.48-5.22S187.18,200.3,185,196.45Z" style="fill:#5061FC;stroke:#263238;stroke-miterlimit:10"></path><path d="M182.94,198.1s-13,.75-23,3.5-21.72,10-22.22,11.49,6.24,17,10.24,17.48,9.49-2.25,11.24-3.25,4.24-12.49,6.49-12.24,8.24,7.25,9.74,7.25,11-2.5,12.23-4.75S184.94,201.6,182.94,198.1Z" style="fill:#fff;stroke:#263238;stroke-miterlimit:10"></path><path d="M148.67,219s5.78-5.78,9.08-3.85" style="fill:none;stroke:#263238;stroke-miterlimit:10"></path><path d="M172.6,211s3.85-3.57,8.25-2.47" style="fill:none;stroke:#263238;stroke-miterlimit:10"></path><path d="M155.27,207.46a11.45,11.45,0,0,0-9.9,6.6" style="fill:none;stroke:#263238;stroke-miterlimit:10"></path><path d="M170.68,203.05s7.15-3.3,10.45.28" style="fill:none;stroke:#263238;stroke-miterlimit:10"></path><path d="M155.55,202.5s4.95,2.2,7.15,1.93,4.4-4.68,4.4-4.68S158.57,200.85,155.55,202.5Z" style="fill:#263238;stroke:#263238;stroke-miterlimit:10"></path><path d="M158.85,228.64s7.43.55,10.18-.56,7.7-5,7.7-5-9.39-7.29-11-8S159.4,225.06,158.85,228.64Z" style="fill:#263238;stroke:#263238;stroke-miterlimit:10"></path><path d="M178.66,238.69a2.91,2.91,0,0,1-1.43-5.44C184.57,229.12,192,218.7,192,204.7c0-13.52-10.66-38.2-10.76-38.45a2.9,2.9,0,1,1,5.33-2.31c.45,1.05,11.24,26,11.24,40.76,0,14.15-7.12,27.66-17.71,33.62A2.92,2.92,0,0,1,178.66,238.69Z" style="fill:#5061FC;stroke:#263238;stroke-miterlimit:10"></path><circle cx="173.7" cy="238.54" r="10.18" transform="translate(-117.8 192.69) rotate(-45)" style="fill:#263238;stroke:#263238;stroke-miterlimit:10"></circle></g><g id="freepik--plants-1--inject-37"><path d="M377,421.84s-10.5-6.47-14.42-22.48-12.86-25.58-15.86-18.42,4,12.61,4,12.61-13.89-14.3-18.32-10.84-5.26,4.53-1.5,7.46,10.62,7.43,10.62,7.43-17.36-11-19.94-4.33-.27,7.24,5.82,9.4,14.28,8,14.28,8-14.69-1.1-14.76,2.3.76,10.1,7,9.81,19.4,3.91,19.4,3.91-15.53,0-12.19,3.45,9.43,5.63,13.37,6.11,21.38.27,21.38.27" style="fill:#5061FC;stroke:#263238;stroke-miterlimit:10"></path><path d="M377.69,409.61s-9-7-14.31-13.5-8.22-6.88-9.23-4.39-.68,5.09,2.58,8.11,8.48,8.95,8.48,8.95-9.78-6.69-15.41-9.68-8.53,1.32-8.21,3.91,3.46,4.58,8.35,7.92,10.82,6.57,10.82,6.57-12.73-7.12-14.61-5.31-1.18,7.52,2.71,9.15,15.84,6.73,15.84,6.73-7,1.12-5.55,4.11,7.93,6.65,10.3,6.62,13.58-3,13.58-3" style="fill:#5061FC;stroke:#263238;stroke-miterlimit:10"></path><path d="M393.45,424.26s5-6.41,3.17-19.09-5.21-20.95-9.75-19.33-6.29,6.46-3.21,10.21a28.11,28.11,0,0,1,4.54,9.11,35.55,35.55,0,0,0-9.09-11.78c-6.45-5.52-9.35-9.64-11.69-7.25s-4.22,4.21.8,8.59,8.64,8.15,10.58,11.07a18.14,18.14,0,0,1,2.49,5.22s-8.48-8.95-15.61-11.23-.46,4.79-.47,9S373,418.41,377,421.84l4,3.43" style="fill:#5061FC;stroke:#263238;stroke-miterlimit:10"></path><path d="M378.19,441.41s5.94-1,13-7.66,11.53-15.38,7.35-17.23-5.28,2-7.78,5.17-9,10.33-8.09,9.16,6.43-7.64,4.82-16.39S383.08,402.1,380,403s.82,15.17-5.31,23c0,0,1.63-12.31-.3-19.44s-3.87-14.27-7.23-16-5.92,2.28-4.66,8.72,7.28,12.54,4.16,21.35" style="fill:#5061FC;stroke:#263238;stroke-miterlimit:10"></path><path d="M718.84,378.21c-9.59-6.85-36.31-7.54-29.46-11.65s33.57-8.22,32.89-21.92-24.64-36.91-50.17-36.95c-6.16,0-54.7,2.07-58.78,9.54s2,10.74,2,10.74-17.66,8.83-29.89,21.74-2.72,22.42-2.72,22.42-14.27,6.79-32.61,15.62-65.22,19.7-83.56,25.14c-1.69.5-3.44,1-5.23,1.48-3.89.39-9.79-.25-17.19-4.88-13.84-8.64-27.14-3-20.2-.94s16.74,7.86,16.74,7.86-35.73-8.65-31.7-2.89c1.66,2.38,5,3.87,8.33,4.81-7.74-1.05-17.32-1.8-17,1a5.76,5.76,0,0,0,2.41,3.31c-19.56,1.11-59.8,5.66-78.17,10.67-5.85,1.6-15.31,3.47-26.1,5.37-5.82-.35-11.13-1.12-14-2.64-8.65-4.61-12.68-6.34-12.68-2.88s9.22,5.76,6.91,6.92-17.86-3.46-38.61-12.68-23.63-4.61-17.87-1.73,13.26,7.49,13.26,7.49-28.82-4-20.75,2.31,23.05,5.18,24.78,5.18-23.05,2.89-20.75,6.92,20.18-1.15,20.18-1.15l-1.59,1.72-10.63,1.48s-40.24,11.54-51.2,14.28-34.26,5.48-15.76,7.54,63,8.91,92.5,2.74,34.94-7.54,39-11,40.43-3.43,58.93-3.43,26,2.74,7.54,8.91-50.71,6.17-28.09,9.59,46.59,1.37,87.7,0,63-11.65,78.8-20.55,78.11-34.27,68.52-21.25S526.3,452.9,546.86,455s39.74-1.37,88.39-1.37,74.68-2.74,71.94-15.76S649,421.38,664,419.32s55.5-4.11,57.55-7.53S728.43,385.06,718.84,378.21Z" style="fill:#263238"></path><path d="M581.71,380.34s-20,2.22-41.08-14.44-42.2-20-38.87-7.77,17.77,12.21,17.77,12.21-32.21-4.44-34.43,4.44-2.22,11.11,5.55,11.11,21.1-1.11,21.1-1.11-33.31,3.33-30,14.43,6.93,9.58,16.92,6.25,26.39-4,26.39-4-20,13.33-16.66,17.77,11.11,12.22,18.88,5.56,28.87-14.44,28.87-14.44S536.18,425.87,544,427s17.76-2.22,23.32-5.56S595,400.32,595,400.32" style="fill:#5061FC;stroke:#263238;stroke-miterlimit:10"></path><path d="M570.4,363.88s-18.68,0-31.94-3-17.47-.6-16.27,3.62,4.22,7.23,11.45,7.83,19.89,3,19.89,3-19.29,1.2-29.53,3-9.64,10.24-6.63,13.26,9,2.41,18.68,1.8S556.54,391,556.54,391s-23.5,3.62-24.1,7.84,6,10.84,12.65,9,27.12-7.23,27.12-7.23-7.84,8.43-3,10.84,16.87.6,19.88-1.81,14.46-17.47,14.46-17.47" style="fill:#5061FC;stroke:#263238;stroke-miterlimit:10"></path><path d="M605.35,366.89s0-13.26-15.06-27.72-27.72-21.7-31.94-15.07-1.6,14.61,6.13,16.35,15,7.16,15,7.16a57.78,57.78,0,0,0-23.5-6c-13.83-.63-21.7-3-22.3,2.41s-1.2,9.64,9.64,10.24S562.57,356,568,357.85a29.64,29.64,0,0,1,8.44,4.22s-19.89-3-31.34,1.2,4.22,6.63,8.44,12.06,19.61,4.59,28.18,5l8.58.41" style="fill:#5061FC;stroke:#263238;stroke-miterlimit:10"></path><path d="M602.94,404.25s6.63-7.23,9-22.9-.6-31.33-7.83-29.53-4.82,7.84-4.82,14.47-1.21,22.29-1.21,19.88.6-16.27-10.24-25.91S569.8,348.81,566.79,353s16.27,18.68,16.27,35c0,0-10.25-17.48-19.89-24.71S543.89,348.81,537.86,350s-5.32,8.86,2.77,15.88,21.94,8.82,26.76,23.29" style="fill:#5061FC;stroke:#263238;stroke-miterlimit:10"></path><path d="M631.92,331.92S609,337,609.61,344s21,10.85,36.34,12.76,32.52,1.27,39.54-1.91,1.91-13.4-9.57-16.58-12.11-5.11-19.13-3.19S631.92,331.92,631.92,331.92Z" style="fill:#969696;stroke:#263238;stroke-miterlimit:10"></path><path d="M609,377.83s-17.22,9.57-21.05,14,11.48,4.46,23.6,8.29,37.62,5.74,50.37,5.74,30.61-1.92,29.34-7-4.47-13.39-16.58-16.58-12.12-5.1-26.79-7S623.63,369.54,609,377.83Z" style="fill:#969696;stroke:#263238;stroke-miterlimit:10"></path><path d="M614.71,356.15s-12.76,1.28-20.41,5.74-30,7.65-26.14,11.48,24.87,8.29,37,8.92,23,2.56,28.06,1.92,10.84-.64,12.75-4.47-15.94-19.13-21-20.4S614.71,356.15,614.71,356.15Z" style="fill:#969696;stroke:#263238;stroke-miterlimit:10"></path><line x1="580.87" y1="376.87" x2="594.98" y2="370.6" style="fill:none;stroke:#263238;stroke-linecap:round;stroke-miterlimit:10"></line><path d="M672.1,307.69A142.62,142.62,0,0,0,640.21,316c-15.94,6.37-19.13,9.56-12.11,9.56s24.23,5.74,47.18,6.38,44-4.46,29.34-10.2S684.21,303.86,672.1,307.69Z" style="fill:#969696;stroke:#263238;stroke-miterlimit:10"></path><line x1="606.68" y1="370.18" x2="594.25" y2="379.33" style="fill:#969696;stroke:#263238;stroke-miterlimit:10"></line><line x1="605.95" y1="380.06" x2="608.97" y2="377.83" style="fill:#969696;stroke:#263238;stroke-miterlimit:10"></line><line x1="623.86" y1="382.25" x2="624.23" y2="375.67" style="fill:#969696;stroke:#263238;stroke-miterlimit:10"></line><line x1="635.56" y1="382.25" x2="634.83" y2="378.23" style="fill:#969696;stroke:#263238;stroke-miterlimit:10"></line><line x1="597.54" y1="396.88" x2="601.56" y2="391.39" style="fill:#969696;stroke:#263238;stroke-miterlimit:10"></line><line x1="607.41" y1="397.97" x2="612.89" y2="389.56" style="fill:#969696;stroke:#263238;stroke-miterlimit:10"></line><line x1="640.32" y1="403.09" x2="640.32" y2="396.14" style="fill:#969696;stroke:#263238;stroke-miterlimit:10"></line><line x1="675.78" y1="404.55" x2="669.57" y2="394.32" style="fill:#969696;stroke:#263238;stroke-miterlimit:10"></line><line x1="685.29" y1="402.73" x2="681.63" y2="396.14" style="fill:#969696;stroke:#263238;stroke-miterlimit:10"></line><line x1="657.5" y1="400.9" x2="654.58" y2="393.95" style="fill:#969696;stroke:#263238;stroke-miterlimit:10"></line><line x1="667.37" y1="390.66" x2="665.18" y2="388.1" style="fill:#969696;stroke:#263238;stroke-miterlimit:10"></line><line x1="670.66" y1="356.66" x2="668.1" y2="348.25" style="fill:#969696;stroke:#263238;stroke-miterlimit:10"></line><line x1="671.76" y1="342.76" x2="675.78" y2="351.17" style="fill:#969696;stroke:#263238;stroke-miterlimit:10"></line><line x1="649.09" y1="340.94" x2="648.73" y2="350.08" style="fill:#969696;stroke:#263238;stroke-miterlimit:10"></line><line x1="636.29" y1="346.05" x2="628.62" y2="353" style="fill:#969696;stroke:#263238;stroke-miterlimit:10"></line><line x1="613.99" y1="348.25" x2="623.5" y2="342.03" style="fill:#969696;stroke:#263238;stroke-miterlimit:10"></line><line x1="626.42" y1="340.94" x2="629.35" y2="338.74" style="fill:#969696;stroke:#263238;stroke-miterlimit:10"></line><line x1="659.33" y1="357.02" x2="659.69" y2="351.9" style="fill:#969696;stroke:#263238;stroke-miterlimit:10"></line><line x1="634.83" y1="325.95" x2="643.97" y2="322.65" style="fill:#969696;stroke:#263238;stroke-miterlimit:10"></line><line x1="647.63" y1="328.14" x2="655.67" y2="322.29" style="fill:#969696;stroke:#263238;stroke-miterlimit:10"></line><line x1="669.2" y1="318.27" x2="661.52" y2="327.41" style="fill:#969696;stroke:#263238;stroke-miterlimit:10"></line><line x1="676.88" y1="324.12" x2="677.24" y2="329.6" style="fill:#969696;stroke:#263238;stroke-miterlimit:10"></line><line x1="686.75" y1="321.19" x2="691.87" y2="330.7" style="fill:#969696;stroke:#263238;stroke-miterlimit:10"></line><line x1="701.37" y1="329.24" x2="695.89" y2="323.75" style="fill:#969696;stroke:#263238;stroke-miterlimit:10"></line><path d="M569,423.11s-18,4-17.53,9.52,16.52,8.51,28.54,10,25.54,1,31-1.5,1.51-10.52-7.51-13-9.51-4-15-2.51S569,423.11,569,423.11Z" style="fill:#969696;stroke:#263238;stroke-miterlimit:10"></path><path d="M551,459.17s-13.53,7.51-16.53,11,9,3.5,18.53,6.51,29.55,4.5,39.56,4.5,24-1.5,23-5.5-3.5-10.52-13-13-9.52-4-21-5.5S562.48,452.66,551,459.17Z" style="fill:#969696;stroke:#263238;stroke-miterlimit:10"></path><path d="M555.47,442.14s-10,1-16,4.51-23.54,6-20.54,9,19.54,6.51,29.05,7,18,2,22,1.51,8.51-.5,10-3.51-12.52-15-16.52-16S555.47,442.14,555.47,442.14Z" style="fill:#969696;stroke:#263238;stroke-miterlimit:10"></path><path d="M600.55,404.08a112,112,0,0,0-25,6.51c-12.52,5-15,7.51-9.52,7.51s19,4.51,37.06,5,34.56-3.5,23-8S610.06,401.08,600.55,404.08Z" style="fill:#969696;stroke:#263238;stroke-miterlimit:10"></path><line x1="549.17" y1="453.16" x2="539.41" y2="460.34" style="fill:#969696;stroke:#263238;stroke-miterlimit:10"></line><line x1="548.59" y1="460.92" x2="550.97" y2="459.17" style="fill:#969696;stroke:#263238;stroke-miterlimit:10"></line><line x1="562.67" y1="462.64" x2="562.95" y2="457.47" style="fill:#969696;stroke:#263238;stroke-miterlimit:10"></line><line x1="571.85" y1="462.64" x2="571.28" y2="459.48" style="fill:#969696;stroke:#263238;stroke-miterlimit:10"></line><line x1="541.99" y1="474.13" x2="545.15" y2="469.82" style="fill:#969696;stroke:#263238;stroke-miterlimit:10"></line><line x1="549.74" y1="474.99" x2="554.05" y2="468.38" style="fill:#969696;stroke:#263238;stroke-miterlimit:10"></line><line x1="575.59" y1="479.01" x2="575.59" y2="473.55" style="fill:#969696;stroke:#263238;stroke-miterlimit:10"></line><line x1="603.44" y1="480.16" x2="598.56" y2="472.12" style="fill:#969696;stroke:#263238;stroke-miterlimit:10"></line><line x1="610.91" y1="478.72" x2="608.04" y2="473.55" style="fill:#969696;stroke:#263238;stroke-miterlimit:10"></line><line x1="589.08" y1="477.29" x2="586.79" y2="471.83" style="fill:#969696;stroke:#263238;stroke-miterlimit:10"></line><line x1="596.84" y1="469.25" x2="595.11" y2="467.23" style="fill:#969696;stroke:#263238;stroke-miterlimit:10"></line><line x1="599.42" y1="442.54" x2="597.41" y2="435.94" style="fill:#969696;stroke:#263238;stroke-miterlimit:10"></line><line x1="600.28" y1="431.63" x2="603.44" y2="438.23" style="fill:#969696;stroke:#263238;stroke-miterlimit:10"></line><line x1="582.48" y1="430.19" x2="582.19" y2="437.37" style="fill:#969696;stroke:#263238;stroke-miterlimit:10"></line><line x1="572.43" y1="434.21" x2="566.4" y2="439.67" style="fill:#969696;stroke:#263238;stroke-miterlimit:10"></line><line x1="554.91" y1="435.94" x2="562.38" y2="431.05" style="fill:#969696;stroke:#263238;stroke-miterlimit:10"></line><line x1="564.68" y1="430.19" x2="566.97" y2="428.47" style="fill:#969696;stroke:#263238;stroke-miterlimit:10"></line><line x1="590.52" y1="442.83" x2="590.81" y2="438.81" style="fill:#969696;stroke:#263238;stroke-miterlimit:10"></line><line x1="571.28" y1="418.42" x2="578.46" y2="415.83" style="fill:#969696;stroke:#263238;stroke-miterlimit:10"></line><line x1="581.33" y1="420.14" x2="587.65" y2="415.55" style="fill:#969696;stroke:#263238;stroke-miterlimit:10"></line><line x1="598.27" y1="412.39" x2="592.24" y2="419.57" style="fill:#969696;stroke:#263238;stroke-miterlimit:10"></line><line x1="604.3" y1="416.98" x2="604.59" y2="421.29" style="fill:#969696;stroke:#263238;stroke-miterlimit:10"></line><line x1="612.06" y1="414.69" x2="616.08" y2="422.15" style="fill:#969696;stroke:#263238;stroke-miterlimit:10"></line><line x1="623.54" y1="421" x2="619.23" y2="416.7" style="fill:#969696;stroke:#263238;stroke-miterlimit:10"></line></g><g id="freepik--fishes-2--inject-37"><path d="M484.18,94.73s2.92,1,6.43-2.73,4.1-7,12.09-12.87,17.17-6.83,21.07-7a50,50,0,0,1,9.75,1s-7.41-.78-10.73,1.37-3.7,4.48-1.95,10.14,3.32,5.65,3.9,8a28.08,28.08,0,0,0,1.17,3.71s13.85-7,11.9-3.51-6.63,5.26-6.24,7.8,2.34,7.6,1.36,7.8-6-6.44-7.41-7.22-1.75,0-1.75,0a7.06,7.06,0,0,1-.59,5.07c-1.36,2.93-3.12,6.44-2.73,10.34s2.15,7.22,0,6.05-7.6-7.42-10.92-7.61-10.34-3.51-15-6.63-2.73-7.22-4.48-8.78-5.07-2.14-6.24-3.12S484.18,94.73,484.18,94.73Z" style="fill:#fff;stroke:#263238;stroke-miterlimit:10"></path><path d="M520.06,74.25a8.78,8.78,0,0,0-2.14,8.58c1.56,5.07,4.09,14.82,3.51,19.11s-1.56,9.75-1.76,13.46a25.85,25.85,0,0,0,.78,7.22S514,115.4,514,112.08s3.51-9.94,2-17.16S512.85,85,514,80.3,520.06,74.25,520.06,74.25Z" style="fill:#263238"></path><path d="M506.8,77.18s-4.68,7.41-3.9,14.23,2.73,12.87,2,16a8.88,8.88,0,0,0,1,6s-9.76-4.29-11.9-7-1.17-5.66,0-10.14,1.75-7.61,3.51-10.53A28.18,28.18,0,0,1,506.8,77.18Z" style="fill:#263238"></path><path d="M527.49,95.51c3.57-1.72,11.86-5.5,10.32-2.73-1.95,3.51-6.63,5.26-6.24,7.8s2.34,7.6,1.36,7.8c-.79.16-4.32-4.23-6.33-6.27C526.85,99.58,527.22,97.16,527.49,95.51Z" style="fill:#263238"></path><circle cx="496.85" cy="93.36" r="0.98" style="fill:#fff"></circle><path d="M604.68,256.74s4.12,1.37,9.06-3.84,5.76-9.88,17-18.12,24.16-9.6,29.65-9.88,13.72,1.38,13.72,1.38-10.43-1.1-15.1,1.92-5.21,6.31-2.74,14.27,4.66,8,5.49,11.25a38.48,38.48,0,0,0,1.64,5.22s19.49-9.88,16.75-4.94-9.34,7.41-8.79,11,3.3,10.71,1.92,11-8.5-9.05-10.42-10.15-2.47,0-2.47,0a10,10,0,0,1-.83,7.13c-1.92,4.12-4.39,9.06-3.84,14.55s3,10.15,0,8.51-10.7-10.43-15.37-10.71-14.55-4.94-21.13-9.33-3.84-10.15-6.31-12.35-7.14-3-8.79-4.39S604.68,256.74,604.68,256.74Z" style="fill:#fff;stroke:#263238;stroke-miterlimit:10"></path><path d="M655.18,227.92a12.37,12.37,0,0,0-3,12.08c2.2,7.13,5.77,20.86,4.94,26.9s-2.19,13.72-2.47,18.93a36.12,36.12,0,0,0,1.1,10.16s-9.06-10.16-9.06-14.82,4.94-14,2.75-24.16-4.39-14-2.75-20.58S655.18,227.92,655.18,227.92Z" style="fill:#263238"></path><path d="M636.52,232s-6.59,10.43-5.49,20,3.84,18.12,2.74,22.51,1.38,8.51,1.38,8.51-13.73-6-16.75-9.88-1.64-8,0-14.27,2.47-10.71,4.94-14.82S631.85,234.51,636.52,232Z" style="fill:#263238"></path><path d="M665.63,257.85c5-2.43,16.69-7.75,14.53-3.85-2.75,4.94-9.34,7.41-8.79,11s3.3,10.71,1.92,11c-1.12.23-6.08-5.95-8.91-8.83C664.74,263.57,665.25,260.17,665.63,257.85Z" style="fill:#263238"></path><path d="M621.15,254.82a1.37,1.37,0,1,0,1.37-1.37A1.37,1.37,0,0,0,621.15,254.82Z" style="fill:#fff"></path><path d="M352,341.46s2.56.86,5.63-2.38,3.58-6.14,10.57-11.26,15-6,18.42-6.14a43.86,43.86,0,0,1,8.53.86s-6.48-.68-9.38,1.19-3.24,3.92-1.71,8.87,2.9,4.94,3.41,7a22.4,22.4,0,0,0,1,3.24s12.1-6.14,10.4-3.07-5.8,4.6-5.46,6.82,2,6.65,1.19,6.82-5.28-5.63-6.48-6.31-1.53,0-1.53,0a6.22,6.22,0,0,1-.51,4.44c-1.2,2.55-2.73,5.62-2.39,9s1.88,6.31,0,5.29-6.65-6.48-9.55-6.65-9-3.07-13.13-5.8-2.39-6.31-3.92-7.67-4.43-1.88-5.46-2.73S352,341.46,352,341.46Z" style="fill:#fff;stroke:#263238;stroke-miterlimit:10"></path><path d="M383.41,323.56a7.68,7.68,0,0,0-1.88,7.5c1.37,4.44,3.58,13,3.07,16.71s-1.36,8.53-1.53,11.77a22.41,22.41,0,0,0,.68,6.31s-5.63-6.31-5.63-9.21,3.07-8.7,1.71-15-2.73-8.7-1.71-12.79S383.41,323.56,383.41,323.56Z" style="fill:#263238"></path><path d="M371.81,326.12s-4.09,6.48-3.41,12.45,2.39,11.25,1.71,14a7.76,7.76,0,0,0,.85,5.28s-8.52-3.75-10.4-6.13-1-4.95,0-8.87,1.54-6.65,3.07-9.21A24.77,24.77,0,0,1,371.81,326.12Z" style="fill:#263238"></path><path d="M389.9,342.15c3.12-1.5,10.37-4.81,9-2.39-1.71,3.07-5.8,4.6-5.46,6.82s2,6.65,1.19,6.82c-.69.14-3.77-3.7-5.53-5.48C389.35,345.71,389.67,343.6,389.9,342.15Z" style="fill:#263238"></path><path d="M362.27,340.27a.85.85,0,1,0,.85-.85A.85.85,0,0,0,362.27,340.27Z" style="fill:#fff"></path></g><g id="freepik--fishes-1--inject-37"><path d="M185,311.65a69.73,69.73,0,0,0-5.4,10c-2.32,5.4-6.43,12.86-9.77,15.17s-8.49,3.34-10.54,3.86-3.6,3.6.25,4.88,8.49,4.12,14.66,6.17,6.17,5.66,15.17,8.49,39.85,7.71,48.84,6.42,19.8-4.37,20.57-6.94-2.57-7.71-2.57-7.71,3.16,5.2,6.21,3.37,9.47-14.17,8.7-18.54-2.83-15.94-5.65-14.65-10.29,7.2-12.34,8.74a21,21,0,0,1-3.86,2.31s10-14.4,10.54-18-4.37-5.4-10.54-7.46-31.88-7.71-44.22-6.17A35.26,35.26,0,0,0,185,311.65Z" style="fill:#fff;stroke:#263238;stroke-miterlimit:10"></path><path d="M265.47,322.19c-2.83,1.28-10.29,7.2-12.34,8.74a21,21,0,0,1-3.86,2.31s10-14.4,10.54-18-4.37-5.4-10.54-7.46a175.08,175.08,0,0,0-23.36-5c6,15.93,18.75,50.85,17.49,53-1.11,2-11.52,7.31-18,10.53,5.47.51,10.15.68,12.85.29,9-1.28,19.8-4.37,20.57-6.94.72-2.38-2.09-7-2.51-7.62.41.65,3.33,5,6.15,3.28,3.05-1.83,9.47-14.17,8.7-18.54S268.29,320.9,265.47,322.19Z" style="fill:#969696;stroke:#263238;stroke-miterlimit:10"></path><path d="M246.2,349.91c-3.64-4.86-4.33-13.18-6.76-22.21-2.09-7.76-9.44-21-11.46-24.59-8.31-1.34-17.11-2.22-22.93-1.49a35.26,35.26,0,0,0-20.05,10,69.73,69.73,0,0,0-5.4,10c-1.84,4.29-4.81,9.87-7.63,13.15,1.33,3.89,2.84,7.68,3.45,10.41.46,2,1.08,5,1.66,7.81,3.6,2.07,4.95,4.89,12.29,7.2,6.13,1.93,22.43,4.81,35,6l1.84-.24s13-1.9,20.82-5.2S249.85,354.77,246.2,349.91Z" style="fill:#5061FC;stroke:#263238;stroke-miterlimit:10"></path><path d="M178.88,354.25a32,32,0,0,0-.51-9.72c-1.17-5.11-2.82-11.19-3.53-13.71a21.68,21.68,0,0,1-5,6,12.2,12.2,0,0,1-1.21.74c.6,2.93,1.54,7.93,1.42,10.08a20.45,20.45,0,0,0,0,2.52c1.3.55,2.67,1.08,4.14,1.57A15.37,15.37,0,0,1,178.88,354.25Z" style="fill:#263238;stroke:#263238;stroke-miterlimit:10"></path><path d="M238.92,342.45c1.33.89,3.42,2.51,5.38,4.07-2.09-4.9-2.93-11.64-4.86-18.82-2.09-7.76-9.44-21-11.46-24.59-7.6-1.23-15.59-2.06-21.36-1.64-1.83,2.85-5.2,8.43-6.56,12.88-1.91,6.24-2.09,8.5-4.51,12.31s-5,7.46-5,7.46,9.37-11.79,12.84-18.21,5.38-10.06,6.94-11.28a21.89,21.89,0,0,1,4-2.25s-4.86,8-6.59,12.49-4.51,8.32-5.9,10.75a88.16,88.16,0,0,1-6.42,8.68c-1,1.21,12-10.93,13.19-14.05a87.87,87.87,0,0,1,4.68-9.2c1-1.91,4.68-4.86,4.68-4.86l-5,15.27S235.79,340.37,238.92,342.45Z" style="fill:#263238;stroke:#263238;stroke-miterlimit:10"></path><path d="M198,306.71c1-1.2,4.15-3.38,6.63-5a32.67,32.67,0,0,0-8.75,2.53,49,49,0,0,0-4.29,8.57c-1.74,5-2.43,7.63-5.38,12.14a59.17,59.17,0,0,1-5.73,7.46s10.06-8.33,11.45-12.14S196.24,308.8,198,306.71Z" style="fill:#263238;stroke:#263238;stroke-miterlimit:10"></path><path d="M189.3,311.4a32.84,32.84,0,0,1,4.76-6.33,37.13,37.13,0,0,0-5.45,3.42,21.79,21.79,0,0,0-1.91,4.82,53.84,53.84,0,0,1-4.48,11.21C182.58,323.89,187.63,314.91,189.3,311.4Z" style="fill:#263238;stroke:#263238;stroke-miterlimit:10"></path><path d="M182.22,324.52l0,.06Z" style="fill:#fff;stroke:#263238;stroke-miterlimit:10"></path><path d="M193.46,346.27s4.17,6.24,8,9a28,28,0,0,0,7.12,3.82S193.64,356.16,193.46,346.27Z" style="fill:#263238;stroke:#263238;stroke-miterlimit:10"></path><path d="M194.85,341.76s4.17,3.81,9.37,9.54,13.36,9,13.36,9a108.31,108.31,0,0,1-12-10.06A62.26,62.26,0,0,0,194.85,341.76Z" style="fill:#263238;stroke:#263238;stroke-miterlimit:10"></path><path d="M197.45,337.77s13.36,11.62,17.35,14.57,9.72,6.59,9.72,6.59-12.32-9.54-15.44-12.84S197.45,337.77,197.45,337.77Z" style="fill:#263238;stroke:#263238;stroke-miterlimit:10"></path><path d="M202.14,334.47a71.62,71.62,0,0,0,11.1,9.72c5.9,4,16.48,13.7,16.48,13.7s-11.45-13.36-14.4-15.27S205.09,336.55,202.14,334.47Z" style="fill:#263238;stroke:#263238;stroke-miterlimit:10"></path><path d="M203.87,330.65s11.8,6.25,17.18,10.76,11.62,11.1,11.79,11.62-5.55-8.84-9.54-12.83S203.87,330.65,203.87,330.65Z" style="fill:#263238;stroke:#263238;stroke-miterlimit:10"></path><path d="M271.12,336.84c-.77-4.37-2.83-15.94-5.65-14.65a15.72,15.72,0,0,0-1.83,1,13.9,13.9,0,0,0,.6,6.22c1.74,5.38,3.13,11.1,1.05,15.44s-4,5.9-4.52,9.19a13.1,13.1,0,0,0-.13,1.66,2.58,2.58,0,0,0,1.78-.35C265.47,353.55,271.89,341.21,271.12,336.84Z" style="fill:#fff;stroke:#263238;stroke-miterlimit:10"></path><path d="M86.45,220.76a42.28,42.28,0,0,1,3.3,6.12c1.41,3.3,3.92,7.85,6,9.26s5.18,2,6.43,2.36,2.2,2.2-.16,3-5.18,2.51-8.94,3.77-3.77,3.45-9.27,5.18S59.45,255.14,54,254.35s-12.09-2.66-12.56-4.23S43,245.41,43,245.41s-1.93,3.17-3.79,2.05-5.79-8.65-5.32-11.32,1.73-9.73,3.45-8.94,6.28,4.39,7.54,5.33A12.62,12.62,0,0,0,47.21,234s-6.13-8.8-6.44-11,2.67-3.3,6.44-4.56,19.46-4.71,27-3.76A21.55,21.55,0,0,1,86.45,220.76Z" style="fill:#fff;stroke:#263238;stroke-miterlimit:10"></path><path d="M37.31,227.2c1.73.78,6.28,4.39,7.54,5.33A12.62,12.62,0,0,0,47.21,234s-6.13-8.8-6.44-11,2.67-3.3,6.44-4.56a107,107,0,0,1,14.26-3.05c-3.64,9.73-11.45,31.05-10.68,32.4.68,1.19,7,4.46,11,6.43a39.85,39.85,0,0,1-7.85.17c-5.5-.78-12.09-2.66-12.56-4.23s1.28-4.25,1.53-4.66c-.25.4-2,3-3.75,2s-5.79-8.65-5.32-11.32S35.59,226.41,37.31,227.2Z" style="fill:#969696;stroke:#263238;stroke-miterlimit:10"></path><path d="M49.08,244.12c2.22-3,2.65-8.05,4.13-13.55,1.28-4.75,5.76-12.85,7-15,5.08-.82,10.45-1.36,14-.91a21.55,21.55,0,0,1,12.24,6.12,42.28,42.28,0,0,1,3.3,6.12,34.75,34.75,0,0,0,4.66,8c-.82,2.37-1.73,4.69-2.11,6.35-.28,1.26-.66,3-1,4.77-2.19,1.27-3,3-7.5,4.4-3.74,1.18-13.7,2.94-21.39,3.69L61.26,254s-7.94-1.17-12.71-3.18S46.85,247.09,49.08,244.12Z" style="fill:#5061FC;stroke:#263238;stroke-miterlimit:10"></path><path d="M90.19,246.77a19.22,19.22,0,0,1,.31-5.93c.71-3.12,1.72-6.83,2.15-8.37a13.11,13.11,0,0,0,3.07,3.67,6.13,6.13,0,0,0,.74.46,34.92,34.92,0,0,0-.88,6.15,11.2,11.2,0,0,1,0,1.54c-.8.33-1.64.66-2.53,1A9.52,9.52,0,0,0,90.19,246.77Z" style="fill:#263238;stroke:#263238;stroke-miterlimit:10"></path><path d="M53.53,239.57c-.82.54-2.1,1.53-3.29,2.48,1.28-3,1.79-7.1,3-11.48,1.28-4.75,5.76-12.85,7-15a61.85,61.85,0,0,1,13-1,36.87,36.87,0,0,1,4,7.86c1.16,3.81,1.27,5.19,2.75,7.52s3.07,4.55,3.07,4.55-5.72-7.2-7.84-11.12S72,217.22,71,216.48a13.07,13.07,0,0,0-2.44-1.38,66,66,0,0,1,4,7.63,42.3,42.3,0,0,0,3.6,6.56,52,52,0,0,0,3.92,5.3c.63.74-7.31-6.67-8.05-8.58a56.17,56.17,0,0,0-2.86-5.61,15.35,15.35,0,0,0-2.86-3l3.07,9.32S55.43,238.3,53.53,239.57Z" style="fill:#263238;stroke:#263238;stroke-miterlimit:10"></path><path d="M78.53,217.75a24.78,24.78,0,0,0-4-3.07,20.1,20.1,0,0,1,5.35,1.54,30.42,30.42,0,0,1,2.62,5.23c1.06,3.08,1.48,4.67,3.28,7.42a36.58,36.58,0,0,0,3.5,4.56s-6.15-5.09-7-7.42S79.59,219,78.53,217.75Z" style="fill:#263238;stroke:#263238;stroke-miterlimit:10"></path><path d="M83.82,220.61a19.3,19.3,0,0,0-2.9-3.86,23.12,23.12,0,0,1,3.33,2.08,13.44,13.44,0,0,1,1.16,2.94,32.76,32.76,0,0,0,2.74,6.85C87.93,228.24,84.85,222.75,83.82,220.61Z" style="fill:#263238;stroke:#263238;stroke-miterlimit:10"></path><path d="M88.15,228.62l0,0Z" style="fill:#fff;stroke:#263238;stroke-miterlimit:10"></path><path d="M81.28,241.9a26.81,26.81,0,0,1-4.87,5.51,17.07,17.07,0,0,1-4.34,2.33S81.18,247.94,81.28,241.9Z" style="fill:#263238;stroke:#263238;stroke-miterlimit:10"></path><path d="M80.43,239.15s-2.54,2.33-5.72,5.82a25.46,25.46,0,0,1-8.15,5.51,66.26,66.26,0,0,0,7.31-6.14A38.19,38.19,0,0,1,80.43,239.15Z" style="fill:#263238;stroke:#263238;stroke-miterlimit:10"></path><path d="M78.85,236.71s-8.16,7.1-10.6,8.9-5.93,4-5.93,4,7.52-5.82,9.43-7.84S78.85,236.71,78.85,236.71Z" style="fill:#263238;stroke:#263238;stroke-miterlimit:10"></path><path d="M76,234.7a44.28,44.28,0,0,1-6.78,5.93A124.49,124.49,0,0,0,59.14,249s7-8.16,8.79-9.32S74.18,236,76,234.7Z" style="fill:#263238;stroke:#263238;stroke-miterlimit:10"></path><path d="M74.93,232.37s-7.21,3.81-10.49,6.56a63.36,63.36,0,0,0-7.21,7.1c-.1.32,3.39-5.4,5.83-7.84S74.93,232.37,74.93,232.37Z" style="fill:#263238;stroke:#263238;stroke-miterlimit:10"></path><path d="M33.86,236.14c.47-2.66,1.73-9.73,3.45-8.94a8.13,8.13,0,0,1,1.12.63,8.46,8.46,0,0,1-.37,3.79c-1.06,3.29-1.91,6.78-.64,9.43s2.44,3.6,2.76,5.62a6.29,6.29,0,0,1,.08,1,1.59,1.59,0,0,1-1.08-.22C37.31,246.35,33.39,238.81,33.86,236.14Z" style="fill:#fff;stroke:#263238;stroke-miterlimit:10"></path><path d="M245.14,384.77a43.48,43.48,0,0,0-3.29,6.12c-1.42,3.3-3.93,7.85-6,9.27s-5.18,2-6.44,2.35-2.2,2.2.16,3,5.18,2.52,9,3.77,3.77,3.46,9.26,5.18,24.33,4.71,29.83,3.93,12.09-2.67,12.56-4.24-1.57-4.71-1.57-4.71,1.93,3.17,3.79,2.06,5.78-8.65,5.31-11.32-1.72-9.74-3.45-9-6.28,4.39-7.54,5.34a12.63,12.63,0,0,1-2.35,1.41s6.12-8.79,6.44-11-2.67-3.3-6.44-4.55-19.47-4.71-27-3.77A21.55,21.55,0,0,0,245.14,384.77Z" style="fill:#fff;stroke:#263238;stroke-miterlimit:10"></path><path d="M294.28,391.21c-1.73.78-6.28,4.39-7.54,5.34a12.63,12.63,0,0,1-2.35,1.41s6.12-8.79,6.44-11-2.67-3.3-6.44-4.55a107,107,0,0,0-14.26-3.06c3.63,9.73,11.44,31.05,10.68,32.4-.68,1.19-7,4.46-11,6.43a40,40,0,0,0,7.85.18c5.49-.79,12.09-2.67,12.56-4.24s-1.28-4.25-1.54-4.66c.26.4,2,3,3.76,2s5.78-8.65,5.31-11.32S296,390.42,294.28,391.21Z" style="fill:#969696;stroke:#263238;stroke-miterlimit:10"></path><path d="M282.52,408.14c-2.23-3-2.65-8.05-4.13-13.56-1.28-4.74-5.77-12.85-7-15-5.08-.82-10.45-1.36-14-.91a21.55,21.55,0,0,0-12.25,6.12,43.48,43.48,0,0,0-3.29,6.12,34.78,34.78,0,0,1-4.67,8c.82,2.38,1.74,4.69,2.11,6.36.29,1.25.66,3,1,4.77,2.19,1.26,3,3,7.5,4.39,3.75,1.18,13.7,2.94,21.4,3.69l1.12-.14s7.95-1.17,12.72-3.18S284.74,411.1,282.52,408.14Z" style="fill:#5061FC;stroke:#263238;stroke-miterlimit:10"></path><path d="M241.41,410.79a19.93,19.93,0,0,0-.31-5.94c-.72-3.12-1.73-6.83-2.16-8.37a13.32,13.32,0,0,1-3.06,3.68,7.66,7.66,0,0,1-.74.45,34.83,34.83,0,0,1,.87,6.15,12.76,12.76,0,0,0,0,1.54c.79.34,1.63.66,2.53,1A9.43,9.43,0,0,1,241.41,410.79Z" style="fill:#263238;stroke:#263238;stroke-miterlimit:10"></path><path d="M278.07,403.58c.81.55,2.09,1.53,3.29,2.49-1.28-3-1.79-7.11-3-11.49-1.28-4.74-5.77-12.85-7-15a61.76,61.76,0,0,0-13-1,36.87,36.87,0,0,0-4,7.86c-1.17,3.81-1.27,5.19-2.76,7.52s-3.07,4.56-3.07,4.56,5.72-7.21,7.84-11.13,3.28-6.14,4.24-6.88a13.44,13.44,0,0,1,2.43-1.38,66.54,66.54,0,0,0-4,7.63,44.76,44.76,0,0,1-3.6,6.57,54.45,54.45,0,0,1-3.92,5.29c-.64.74,7.31-6.67,8-8.58a53.18,53.18,0,0,1,2.86-5.61,15.06,15.06,0,0,1,2.86-3l-3.07,9.32S276.16,402.31,278.07,403.58Z" style="fill:#263238;stroke:#263238;stroke-miterlimit:10"></path><path d="M253.07,381.76a25.07,25.07,0,0,1,4-3.07,19.91,19.91,0,0,0-5.34,1.55,29.71,29.71,0,0,0-2.62,5.23,27.33,27.33,0,0,1-3.29,7.41,36.22,36.22,0,0,1-3.49,4.56s6.14-5.09,7-7.42S252,383,253.07,381.76Z" style="fill:#263238;stroke:#263238;stroke-miterlimit:10"></path><path d="M247.77,384.62a19.69,19.69,0,0,1,2.9-3.86,22.42,22.42,0,0,0-3.32,2.08,14.16,14.16,0,0,0-1.17,2.94,33,33,0,0,1-2.73,6.85C243.66,392.25,246.75,386.77,247.77,384.62Z" style="fill:#263238;stroke:#263238;stroke-miterlimit:10"></path><path d="M243.45,392.63l0,0Z" style="fill:#fff;stroke:#263238;stroke-miterlimit:10"></path><path d="M250.31,405.91a26.39,26.39,0,0,0,4.88,5.51,16.68,16.68,0,0,0,4.34,2.33S250.42,412,250.31,405.91Z" style="fill:#263238;stroke:#263238;stroke-miterlimit:10"></path><path d="M251.16,403.16s2.54,2.33,5.72,5.82a25.56,25.56,0,0,0,8.16,5.51,65.28,65.28,0,0,1-7.31-6.14A38.48,38.48,0,0,0,251.16,403.16Z" style="fill:#263238;stroke:#263238;stroke-miterlimit:10"></path><path d="M252.75,400.72s8.16,7.1,10.59,8.9,5.93,4,5.93,4-7.52-5.83-9.42-7.84S252.75,400.72,252.75,400.72Z" style="fill:#263238;stroke:#263238;stroke-miterlimit:10"></path><path d="M255.61,398.71a44.28,44.28,0,0,0,6.78,5.93A125.61,125.61,0,0,1,272.45,413s-7-8.16-8.79-9.32S257.41,400,255.61,398.71Z" style="fill:#263238;stroke:#263238;stroke-miterlimit:10"></path><path d="M256.67,396.38s7.2,3.81,10.49,6.57a64.11,64.11,0,0,1,7.2,7.09c.11.32-3.39-5.4-5.83-7.84S256.67,396.38,256.67,396.38Z" style="fill:#263238;stroke:#263238;stroke-miterlimit:10"></path><path d="M297.73,400.16c-.47-2.67-1.72-9.74-3.45-9a10.19,10.19,0,0,0-1.12.63,8.65,8.65,0,0,0,.37,3.8c1.06,3.28,1.91,6.78.64,9.43s-2.44,3.6-2.75,5.61a8,8,0,0,0-.09,1,1.6,1.6,0,0,0,1.09-.21C294.28,410.36,298.2,402.83,297.73,400.16Z" style="fill:#fff;stroke:#263238;stroke-miterlimit:10"></path></g><g id="freepik--Bubbles--inject-37"><path d="M176.51,107.43a4.51,4.51,0,1,1-4.51-4.51A4.51,4.51,0,0,1,176.51,107.43Z" style="fill:none;stroke:#263238;stroke-linecap:round;stroke-linejoin:round"></path><path d="M170.45,105.13a2.71,2.71,0,0,1,1.28-.46" style="fill:none;stroke:#263238;stroke-linecap:round;stroke-linejoin:round"></path><path d="M171.13,110.07a2.79,2.79,0,0,1-1.9-2.64,2.65,2.65,0,0,1,.16-.94" style="fill:none;stroke:#263238;stroke-linecap:round;stroke-linejoin:round"></path><path d="M180.75,138.88a4.51,4.51,0,1,1-4.51-4.51A4.5,4.5,0,0,1,180.75,138.88Z" style="fill:none;stroke:#263238;stroke-linecap:round;stroke-linejoin:round"></path><path d="M174.69,136.58a2.72,2.72,0,0,1,1.28-.47" style="fill:none;stroke:#263238;stroke-linecap:round;stroke-linejoin:round"></path><path d="M175.37,141.51a2.77,2.77,0,0,1-1.9-2.63,2.65,2.65,0,0,1,.16-.94" style="fill:none;stroke:#263238;stroke-linecap:round;stroke-linejoin:round"></path><path d="M159.74,100.37a4,4,0,1,1-4-4A4,4,0,0,1,159.74,100.37Z" style="fill:none;stroke:#263238;stroke-linecap:round;stroke-linejoin:round"></path><path d="M154.36,98.33a2.45,2.45,0,0,1,1.13-.41" style="fill:none;stroke:#263238;stroke-linecap:round;stroke-linejoin:round"></path><path d="M155,102.71a2.46,2.46,0,0,1-1.7-2.34,2.31,2.31,0,0,1,.15-.83" style="fill:none;stroke:#263238;stroke-linecap:round;stroke-linejoin:round"></path><circle cx="163.36" cy="127.13" r="4" style="fill:none;stroke:#263238;stroke-linecap:round;stroke-linejoin:round"></circle><path d="M162,125.09a2.38,2.38,0,0,1,1.14-.41" style="fill:none;stroke:#263238;stroke-linecap:round;stroke-linejoin:round"></path><path d="M162.59,129.47a2.46,2.46,0,0,1-1.7-2.34,2.31,2.31,0,0,1,.15-.83" style="fill:none;stroke:#263238;stroke-linecap:round;stroke-linejoin:round"></path><path d="M156.74,80.38a4,4,0,1,1-4-4A4,4,0,0,1,156.74,80.38Z" style="fill:none;stroke:#263238;stroke-linecap:round;stroke-linejoin:round"></path><path d="M151.36,78.34a2.49,2.49,0,0,1,1.14-.41" style="fill:none;stroke:#263238;stroke-linecap:round;stroke-linejoin:round"></path><path d="M152,82.73a2.48,2.48,0,0,1-1.69-2.35,2.54,2.54,0,0,1,.14-.83" style="fill:none;stroke:#263238;stroke-linecap:round;stroke-linejoin:round"></path><path d="M137.74,83.13a2.25,2.25,0,1,1-2.25-2.25A2.25,2.25,0,0,1,137.74,83.13Z" style="fill:none;stroke:#263238;stroke-linecap:round;stroke-linejoin:round"></path><path d="M134.71,82a1.59,1.59,0,0,1,.64-.23" style="fill:none;stroke:#263238;stroke-linecap:round;stroke-linejoin:round"></path><path d="M135.06,84.45a1.38,1.38,0,0,1-1-1.32,1.5,1.5,0,0,1,.08-.47" style="fill:none;stroke:#263238;stroke-linecap:round;stroke-linejoin:round"></path><path d="M159.24,121.06a6.82,6.82,0,1,1-6.82-6.82A6.82,6.82,0,0,1,159.24,121.06Z" style="fill:none;stroke:#263238;stroke-linecap:round;stroke-linejoin:round"></path><path d="M150.07,117.58a4.16,4.16,0,0,1,1.94-.7" style="fill:none;stroke:#263238;stroke-linecap:round;stroke-linejoin:round"></path><path d="M151.11,125.05a4.2,4.2,0,0,1-2.89-4,4.16,4.16,0,0,1,.25-1.42" style="fill:none;stroke:#263238;stroke-linecap:round;stroke-linejoin:round"></path><circle cx="113.44" cy="80.38" r="6.82" style="fill:none;stroke:#263238;stroke-linecap:round;stroke-linejoin:round"></circle><path d="M111.09,76.91a4.06,4.06,0,0,1,1.93-.7" style="fill:none;stroke:#263238;stroke-linecap:round;stroke-linejoin:round"></path><path d="M112.13,84.37a4.2,4.2,0,0,1-2.89-4,4.14,4.14,0,0,1,.25-1.41" style="fill:none;stroke:#263238;stroke-linecap:round;stroke-linejoin:round"></path><path d="M477.87,179.53a4.51,4.51,0,1,1-4.51-4.51A4.51,4.51,0,0,1,477.87,179.53Z" style="fill:none;stroke:#263238;stroke-linecap:round;stroke-linejoin:round"></path><path d="M471.81,177.23a2.71,2.71,0,0,1,1.28-.46" style="fill:none;stroke:#263238;stroke-linecap:round;stroke-linejoin:round"></path><path d="M472.5,182.17a2.78,2.78,0,0,1-1.91-2.64,2.94,2.94,0,0,1,.16-.94" style="fill:none;stroke:#263238;stroke-linecap:round;stroke-linejoin:round"></path><path d="M482.11,211a4.51,4.51,0,1,1-4.51-4.51A4.5,4.5,0,0,1,482.11,211Z" style="fill:none;stroke:#263238;stroke-linecap:round;stroke-linejoin:round"></path><path d="M476.05,208.68a2.72,2.72,0,0,1,1.28-.47" style="fill:none;stroke:#263238;stroke-linecap:round;stroke-linejoin:round"></path><path d="M476.74,213.61a2.76,2.76,0,0,1-1.91-2.63A2.9,2.9,0,0,1,475,210" style="fill:none;stroke:#263238;stroke-linecap:round;stroke-linejoin:round"></path><path d="M461.1,172.47a4,4,0,1,1-4-4A4,4,0,0,1,461.1,172.47Z" style="fill:none;stroke:#263238;stroke-linecap:round;stroke-linejoin:round"></path><path d="M455.72,170.43a2.49,2.49,0,0,1,1.14-.41" style="fill:none;stroke:#263238;stroke-linecap:round;stroke-linejoin:round"></path><path d="M456.33,174.81a2.46,2.46,0,0,1-1.7-2.34,2.31,2.31,0,0,1,.15-.83" style="fill:none;stroke:#263238;stroke-linecap:round;stroke-linejoin:round"></path><path d="M468.73,199.23a4,4,0,1,1-4-4A4,4,0,0,1,468.73,199.23Z" style="fill:none;stroke:#263238;stroke-linecap:round;stroke-linejoin:round"></path><path d="M463.34,197.19a2.38,2.38,0,0,1,1.14-.41" style="fill:none;stroke:#263238;stroke-linecap:round;stroke-linejoin:round"></path><path d="M464,201.57a2.46,2.46,0,0,1-1.69-2.34,2.54,2.54,0,0,1,.14-.83" style="fill:none;stroke:#263238;stroke-linecap:round;stroke-linejoin:round"></path><circle cx="454.1" cy="152.48" r="4" style="fill:none;stroke:#263238;stroke-linecap:round;stroke-linejoin:round"></circle><path d="M452.72,150.44a2.49,2.49,0,0,1,1.14-.41" style="fill:none;stroke:#263238;stroke-linecap:round;stroke-linejoin:round"></path><path d="M453.33,154.83a2.48,2.48,0,0,1-1.69-2.35,2.54,2.54,0,0,1,.14-.83" style="fill:none;stroke:#263238;stroke-linecap:round;stroke-linejoin:round"></path><path d="M439.1,155.23a2.25,2.25,0,1,1-2.25-2.25A2.25,2.25,0,0,1,439.1,155.23Z" style="fill:none;stroke:#263238;stroke-linecap:round;stroke-linejoin:round"></path><path d="M436.07,154.08a1.59,1.59,0,0,1,.64-.23" style="fill:none;stroke:#263238;stroke-linecap:round;stroke-linejoin:round"></path><path d="M436.42,156.55a1.38,1.38,0,0,1-1-1.32,1.27,1.27,0,0,1,.09-.47" style="fill:none;stroke:#263238;stroke-linecap:round;stroke-linejoin:round"></path><circle cx="453.78" cy="193.16" r="6.82" style="fill:none;stroke:#263238;stroke-linecap:round;stroke-linejoin:round"></circle><path d="M451.43,189.68a4.2,4.2,0,0,1,1.94-.7" style="fill:none;stroke:#263238;stroke-linecap:round;stroke-linejoin:round"></path><path d="M452.47,197.15a4.2,4.2,0,0,1-2.89-4,4.16,4.16,0,0,1,.25-1.42" style="fill:none;stroke:#263238;stroke-linecap:round;stroke-linejoin:round"></path><circle cx="414.8" cy="152.48" r="6.82" style="fill:none;stroke:#263238;stroke-linecap:round;stroke-linejoin:round"></circle><path d="M412.45,149a4.06,4.06,0,0,1,1.94-.7" style="fill:none;stroke:#263238;stroke-linecap:round;stroke-linejoin:round"></path><path d="M413.49,156.47a4.19,4.19,0,0,1-2.89-4,4.14,4.14,0,0,1,.25-1.41" style="fill:none;stroke:#263238;stroke-linecap:round;stroke-linejoin:round"></path><path d="M596.94,60.16a4.51,4.51,0,1,1-5.46,3.29A4.5,4.5,0,0,1,596.94,60.16Z" style="fill:none;stroke:#263238;stroke-linecap:round;stroke-linejoin:round"></path><path d="M593.25,65.49a2.78,2.78,0,0,1-.14-1.35" style="fill:none;stroke:#263238;stroke-linecap:round;stroke-linejoin:round"></path><path d="M598.21,66a2.77,2.77,0,0,1-3,1.22,2.84,2.84,0,0,1-.87-.38" style="fill:none;stroke:#263238;stroke-linecap:round;stroke-linejoin:round"></path><path d="M628.48,63.61A4.51,4.51,0,1,1,623,66.9,4.52,4.52,0,0,1,628.48,63.61Z" style="fill:none;stroke:#263238;stroke-linecap:round;stroke-linejoin:round"></path><path d="M624.79,68.94a2.78,2.78,0,0,1-.14-1.35" style="fill:none;stroke:#263238;stroke-linecap:round;stroke-linejoin:round"></path><path d="M629.75,69.46a2.77,2.77,0,0,1-3,1.22,2.84,2.84,0,0,1-.87-.38" style="fill:none;stroke:#263238;stroke-linecap:round;stroke-linejoin:round"></path><path d="M586.06,74.74a4,4,0,1,1-4.85,2.92A4,4,0,0,1,586.06,74.74Z" style="fill:none;stroke:#263238;stroke-linecap:round;stroke-linejoin:round"></path><path d="M582.78,79.47a2.42,2.42,0,0,1-.13-1.2" style="fill:none;stroke:#263238;stroke-linecap:round;stroke-linejoin:round"></path><path d="M587.18,79.94A2.48,2.48,0,0,1,584.5,81a2.55,2.55,0,0,1-.77-.34" style="fill:none;stroke:#263238;stroke-linecap:round;stroke-linejoin:round"></path><path d="M613.86,73.78A4,4,0,1,1,609,76.7,4,4,0,0,1,613.86,73.78Z" style="fill:none;stroke:#263238;stroke-linecap:round;stroke-linejoin:round"></path><path d="M610.58,78.51a2.53,2.53,0,0,1-.12-1.2" style="fill:none;stroke:#263238;stroke-linecap:round;stroke-linejoin:round"></path><path d="M615,79a2.48,2.48,0,0,1-3.46.74" style="fill:none;stroke:#263238;stroke-linecap:round;stroke-linejoin:round"></path><path d="M565.94,72.84a4,4,0,1,1-4.85,2.92A4,4,0,0,1,565.94,72.84Z" style="fill:none;stroke:#263238;stroke-linecap:round;stroke-linejoin:round"></path><path d="M562.66,77.57a2.43,2.43,0,0,1-.13-1.2" style="fill:none;stroke:#263238;stroke-linecap:round;stroke-linejoin:round"></path><path d="M567.06,78a2.47,2.47,0,0,1-2.68,1.09,2.57,2.57,0,0,1-.77-.35" style="fill:none;stroke:#263238;stroke-linecap:round;stroke-linejoin:round"></path><path d="M564,91.94a2.25,2.25,0,1,1-2.73,1.65A2.25,2.25,0,0,1,564,91.94Z" style="fill:none;stroke:#263238;stroke-linecap:round;stroke-linejoin:round"></path><path d="M562.19,94.61a1.31,1.31,0,0,1-.07-.68" style="fill:none;stroke:#263238;stroke-linecap:round;stroke-linejoin:round"></path><path d="M564.66,94.87a1.39,1.39,0,0,1-1.51.6,1.11,1.11,0,0,1-.43-.19" style="fill:none;stroke:#263238;stroke-linecap:round;stroke-linejoin:round"></path><path d="M606,80.2a6.82,6.82,0,1,1-8.27,5A6.82,6.82,0,0,1,606,80.2Z" style="fill:none;stroke:#263238;stroke-linecap:round;stroke-linejoin:round"></path><path d="M600.43,88.27a4.28,4.28,0,0,1-.21-2" style="fill:none;stroke:#263238;stroke-linecap:round;stroke-linejoin:round"></path><path d="M607.93,89.05a4.19,4.19,0,0,1-5.88,1.27" style="fill:none;stroke:#263238;stroke-linecap:round;stroke-linejoin:round"></path><path d="M557.16,108.25a6.82,6.82,0,1,1-8.26,5A6.83,6.83,0,0,1,557.16,108.25Z" style="fill:none;stroke:#263238;stroke-linecap:round;stroke-linejoin:round"></path><path d="M551.57,116.31a4.24,4.24,0,0,1-.21-2" style="fill:none;stroke:#263238;stroke-linecap:round;stroke-linejoin:round"></path><path d="M559.07,117.1a4.19,4.19,0,0,1-4.57,1.84,4,4,0,0,1-1.31-.58" style="fill:none;stroke:#263238;stroke-linecap:round;stroke-linejoin:round"></path><path d="M189.55,386.24a4.51,4.51,0,1,1-5.47,3.29A4.51,4.51,0,0,1,189.55,386.24Z" style="fill:none;stroke:#263238;stroke-linecap:round;stroke-linejoin:round"></path><path d="M185.85,391.57a3,3,0,0,1-.14-1.36" style="fill:none;stroke:#263238;stroke-linecap:round;stroke-linejoin:round"></path><path d="M190.81,392.09a2.78,2.78,0,0,1-3,1.22,2.64,2.64,0,0,1-.87-.39" style="fill:none;stroke:#263238;stroke-linecap:round;stroke-linejoin:round"></path><path d="M221.09,389.69a4.51,4.51,0,1,1-5.46,3.29A4.5,4.5,0,0,1,221.09,389.69Z" style="fill:none;stroke:#263238;stroke-linecap:round;stroke-linejoin:round"></path><path d="M217.4,395a2.68,2.68,0,0,1-.14-1.35" style="fill:none;stroke:#263238;stroke-linecap:round;stroke-linejoin:round"></path><path d="M222.35,395.54a2.77,2.77,0,0,1-3,1.22,2.9,2.9,0,0,1-.88-.38" style="fill:none;stroke:#263238;stroke-linecap:round;stroke-linejoin:round"></path><path d="M178.66,400.81a4,4,0,1,1-4.85,2.93A4,4,0,0,1,178.66,400.81Z" style="fill:none;stroke:#263238;stroke-linecap:round;stroke-linejoin:round"></path><path d="M175.38,405.55a2.43,2.43,0,0,1-.12-1.2" style="fill:none;stroke:#263238;stroke-linecap:round;stroke-linejoin:round"></path><path d="M179.78,406a2.45,2.45,0,0,1-2.68,1.08,2.32,2.32,0,0,1-.77-.34" style="fill:none;stroke:#263238;stroke-linecap:round;stroke-linejoin:round"></path><path d="M206.47,399.86a4,4,0,1,1-4.85,2.92A4,4,0,0,1,206.47,399.86Z" style="fill:none;stroke:#263238;stroke-linecap:round;stroke-linejoin:round"></path><path d="M203.19,404.59a2.43,2.43,0,0,1-.13-1.2" style="fill:none;stroke:#263238;stroke-linecap:round;stroke-linejoin:round"></path><path d="M207.59,405.05a2.45,2.45,0,0,1-2.68,1.08,2.32,2.32,0,0,1-.77-.34" style="fill:none;stroke:#263238;stroke-linecap:round;stroke-linejoin:round"></path><path d="M158.54,398.91a4,4,0,1,1-4.85,2.93A4,4,0,0,1,158.54,398.91Z" style="fill:none;stroke:#263238;stroke-linecap:round;stroke-linejoin:round"></path><path d="M155.26,403.65a2.44,2.44,0,0,1-.12-1.2" style="fill:none;stroke:#263238;stroke-linecap:round;stroke-linejoin:round"></path><path d="M159.66,404.11a2.45,2.45,0,0,1-2.68,1.08,2.32,2.32,0,0,1-.77-.34" style="fill:none;stroke:#263238;stroke-linecap:round;stroke-linejoin:round"></path><path d="M156.63,418a2.25,2.25,0,1,1-2.72,1.64A2.25,2.25,0,0,1,156.63,418Z" style="fill:none;stroke:#263238;stroke-linecap:round;stroke-linejoin:round"></path><path d="M154.79,420.68a1.38,1.38,0,0,1-.07-.67" style="fill:none;stroke:#263238;stroke-linecap:round;stroke-linejoin:round"></path><path d="M157.27,420.94a1.38,1.38,0,0,1-1.51.61,1.34,1.34,0,0,1-.44-.19" style="fill:none;stroke:#263238;stroke-linecap:round;stroke-linejoin:round"></path><path d="M198.62,406.28a6.82,6.82,0,1,1-8.26,5A6.81,6.81,0,0,1,198.62,406.28Z" style="fill:none;stroke:#263238;stroke-linecap:round;stroke-linejoin:round"></path><path d="M193,414.34a4.17,4.17,0,0,1-.22-2" style="fill:none;stroke:#263238;stroke-linecap:round;stroke-linejoin:round"></path><path d="M200.54,415.13A4.2,4.2,0,0,1,196,417a4.25,4.25,0,0,1-1.32-.58" style="fill:none;stroke:#263238;stroke-linecap:round;stroke-linejoin:round"></path><path d="M149.76,434.33a6.82,6.82,0,1,1-8.26,5A6.81,6.81,0,0,1,149.76,434.33Z" style="fill:none;stroke:#263238;stroke-linecap:round;stroke-linejoin:round"></path><path d="M144.18,442.39a4.17,4.17,0,0,1-.22-2.05" style="fill:none;stroke:#263238;stroke-linecap:round;stroke-linejoin:round"></path><path d="M151.68,443.18a4.21,4.21,0,0,1-5.89,1.26" style="fill:none;stroke:#263238;stroke-linecap:round;stroke-linejoin:round"></path></g></svg>
