<?xml version="1.0" standalone="no"?>
<!DOCTYPE svg PUBLIC "-//W3C//DTD SVG 20010904//EN"
 "http://www.w3.org/TR/2001/REC-SVG-20010904/DTD/svg10.dtd">
<svg version="1.0" xmlns="http://www.w3.org/2000/svg"
 width="512.000000pt" height="512.000000pt" viewBox="0 0 512.000000 512.000000"
 preserveAspectRatio="xMidYMid meet">

<g transform="translate(0.000000,512.000000) scale(0.100000,-0.100000)"
fill="#ddd" stroke="none">
<path d="M2602 4761 c-283 -156 -627 -556 -926 -1075 -377 -654 -593 -1415
-548 -1931 41 -461 179 -778 455 -1042 199 -190 457 -321 727 -369 126 -22
372 -22 500 0 297 52 543 177 745 380 253 255 399 598 436 1026 17 206 -5 387
-72 577 -69 196 -126 279 -341 501 -553 570 -681 744 -787 1068 -86 261 -121
474 -121 735 0 87 -3 159 -7 159 -5 0 -32 -13 -61 -29z m-747 -3716 c562 -66
907 -162 958 -266 19 -41 11 -66 -27 -87 -26 -14 -58 -17 -196 -16 -143 1
-178 5 -261 27 -185 49 -319 112 -456 217 -95 72 -172 140 -158 140 6 0 69 -7
140 -15z"/>
</g>
</svg>
