<svg width="123" height="123" viewBox="0 0 123 123" fill="none" xmlns="http://www.w3.org/2000/svg">
<path fill-rule="evenodd" clip-rule="evenodd" d="M90.995 83.03L94.6183 87.59C97.366 86.06 100.536 85.18 103.908 85.18C109.152 85.18 113.892 87.29 117.324 90.7C120.756 94.11 122.88 98.83 122.88 104.03C122.88 109.24 120.756 113.95 117.324 117.36C113.892 120.77 109.152 122.88 103.908 122.88C98.6744 122.88 93.9239 120.77 90.4918 117.36C87.0597 113.95 84.9361 109.24 84.9361 104.03C84.9361 98.83 87.0597 94.11 90.4918 90.7L90.5723 90.62L87.0295 86.16C83.4566 88.4 79.2193 89.69 74.6801 89.69C68.2689 89.69 62.4515 87.11 58.2545 82.93C57.1675 81.85 56.1812 80.66 55.3257 79.38L35.0755 89.83C36.8972 92.73 37.954 96.15 37.954 99.81C37.954 105.02 35.8304 109.73 32.3983 113.14C28.9662 116.55 24.2257 118.66 18.982 118.66C13.7383 118.66 8.99785 116.55 5.56578 113.14C2.12365 109.72 0 105.01 0 99.81C0 94.61 2.12365 89.89 5.55572 86.48C8.98778 83.07 13.7283 80.96 18.972 80.96C23.8836 80.96 28.3623 82.82 31.734 85.86L52.9806 74.89C51.9842 72.32 51.4407 69.53 51.4407 66.61C51.4407 62.26 52.6585 58.18 54.7621 54.71L33.6765 38.57C33.596 38.51 33.5255 38.45 33.4551 38.38C33.3142 38.53 33.1733 38.67 33.0324 38.82C29.6003 42.23 24.8598 44.34 19.6161 44.34C14.3724 44.34 9.63192 42.23 6.19986 38.82C2.76779 35.41 0.644141 30.7 0.644141 25.49C0.644141 20.28 2.76779 15.57 6.19986 12.16C9.63192 8.75 14.3724 6.64 19.6161 6.64C24.8598 6.64 29.6003 8.75 33.0324 12.16C36.4644 15.57 38.5881 20.28 38.5881 25.49C38.5881 28.68 37.793 31.69 36.3738 34.33C36.5148 34.4 36.6456 34.48 36.7764 34.58L57.8419 50.69C57.9727 50.55 58.1035 50.42 58.2445 50.28C62.4515 46.1 68.2588 43.52 74.6701 43.52C77.9612 43.52 81.0813 44.2 83.9195 45.42L90.0489 33.95C89.3243 33.41 88.6298 32.82 87.9857 32.18C84.5536 28.77 82.4299 24.06 82.4299 18.85C82.4299 13.64 84.5536 8.93 87.9857 5.52C91.4278 2.11 96.1683 0 101.402 0C106.646 0 111.386 2.11 114.818 5.52C118.25 8.93 120.374 13.64 120.374 18.85C120.374 24.05 118.25 28.77 114.818 32.18C111.386 35.59 106.646 37.7 101.402 37.7C98.9663 37.7 96.6312 37.24 94.4975 36.41L88.3379 47.93C89.3142 48.64 90.2402 49.42 91.0957 50.28C95.3027 54.46 97.8994 60.23 97.8994 66.6C97.8994 72.97 95.3027 78.75 91.0957 82.92L90.995 83.03ZM103.566 113.65C102.861 113.66 102.288 113.11 102.278 112.41C102.267 111.71 102.821 111.14 103.516 111.13C105.377 111.09 107.119 110.4 108.558 109.39C110.229 108.22 111.497 106.63 112.101 105.1C112.362 104.45 113.097 104.14 113.751 104.39C114.406 104.65 114.718 105.38 114.466 106.02C113.681 107.98 112.101 110 110.027 111.45C108.196 112.73 105.981 113.59 103.566 113.65ZM113.993 94.01C111.416 91.45 107.843 89.86 103.908 89.86C99.9727 89.86 96.3998 91.45 93.8232 94.01C91.2466 96.57 89.6463 100.12 89.6463 104.03C89.6463 107.94 91.2466 111.49 93.8232 114.05C96.3998 116.61 99.9727 118.2 103.908 118.2C107.843 118.2 111.416 116.61 113.993 114.05C116.569 111.49 118.17 107.94 118.17 104.03C118.17 100.11 116.569 96.57 113.993 94.01ZM18.2574 15.05C18.9418 14.88 19.6262 15.29 19.7973 15.97C19.9684 16.65 19.5557 17.33 18.8713 17.5C17.3616 17.88 15.9526 18.67 14.7951 19.66C13.527 20.74 12.5507 22.04 12.0374 23.3C11.7757 23.95 11.0309 24.26 10.3868 24C9.73257 23.74 9.42057 23 9.68225 22.36C10.3465 20.75 11.5643 19.1 13.1445 17.76C14.5938 16.51 16.3551 15.53 18.2574 15.05ZM29.701 15.47C27.1244 12.91 23.5514 11.32 19.6161 11.32C15.6808 11.32 12.1078 12.91 9.53128 15.47C6.95471 18.03 5.35442 21.58 5.35442 25.49C5.35442 29.4 6.95471 32.95 9.53128 35.51C12.1078 38.07 15.6808 39.66 19.6161 39.66C23.5514 39.66 27.1244 38.07 29.701 35.51C32.2775 32.95 33.8778 29.4 33.8778 25.49C33.8778 21.58 32.2775 18.04 29.701 15.47ZM101.16 11.08C100.456 11.07 99.9023 10.49 99.9123 9.8C99.9224 9.1 100.506 8.55 101.201 8.57C103.173 8.61 105.005 9.19 106.605 10.1C108.387 11.11 109.886 12.53 110.933 14.05C111.336 14.62 111.185 15.41 110.611 15.8C110.037 16.2 109.242 16.05 108.85 15.48C108.004 14.26 106.797 13.11 105.357 12.3C104.099 11.57 102.67 11.11 101.16 11.08ZM111.497 8.83C108.92 6.27 105.347 4.68 101.412 4.68C97.4767 4.68 93.9037 6.27 91.3271 8.83C88.7506 11.39 87.1503 14.94 87.1503 18.85C87.1503 22.76 88.7506 26.31 91.3271 28.87C93.9037 31.43 97.4767 33.02 101.412 33.02C105.347 33.02 108.92 31.43 111.497 28.87C114.073 26.31 115.674 22.76 115.674 18.85C115.674 14.94 114.073 11.4 111.497 8.83ZM19.8476 107.55C20.5521 107.56 21.1057 108.14 21.0856 108.83C21.0755 109.53 20.4917 110.08 19.7973 110.07C17.8749 110.03 16.0834 109.48 14.5234 108.61C12.7721 107.65 11.3027 106.3 10.2358 104.84C9.82315 104.28 9.95399 103.49 10.5176 103.08C11.0812 102.67 11.8764 102.8 12.289 103.36C13.1546 104.54 14.3422 105.64 15.7513 106.41C16.9792 107.09 18.3681 107.52 19.8476 107.55ZM29.0568 89.79C26.4802 87.23 22.9073 85.64 18.972 85.64C15.0367 85.64 11.4637 87.23 8.88714 89.79C6.31057 92.35 4.71028 95.9 4.71028 99.81C4.71028 103.72 6.31057 107.27 8.88714 109.83C11.4637 112.39 15.0367 113.98 18.972 113.98C22.9073 113.98 26.4802 112.39 29.0568 109.83C31.6334 107.27 33.2337 103.72 33.2337 99.81C33.2337 95.89 31.6434 92.35 29.0568 89.79ZM76.0993 56.39C75.3444 56.38 74.7506 55.76 74.7606 55.01C74.7707 54.26 75.3947 53.67 76.1496 53.68C78.7563 53.74 81.1316 54.67 83.0942 56.03C85.3286 57.59 87.0295 59.76 87.8649 61.87C88.1467 62.56 87.8045 63.35 87.1 63.63C86.4055 63.91 85.6104 63.57 85.3286 62.87C84.6744 61.23 83.3156 59.51 81.5141 58.25C79.9742 57.17 78.1021 56.43 76.0993 56.39Z" fill="#2D93AD"/>
</svg>
